<svg width="112" height="63" viewBox="0 0 112 63" fill="none" xmlns="http://www.w3.org/2000/svg">
<g clip-path="url(#clip0_3457_2840)">
<path d="M23.8555 23.3508V29.9121H17.8276V23.3508H14.9678V39.0135H17.8284V32.6652H23.8547V39.0135H26.7162V23.3508H23.8555ZM35.8725 33.9511C35.8725 34.5789 35.6232 35.181 35.1792 35.6249C34.7353 36.0688 34.1332 36.3182 33.5055 36.3182C32.8777 36.3182 32.2756 36.0688 31.8317 35.6249C31.3877 35.181 31.1384 34.5789 31.1384 33.9511V27.2419H28.4248V33.9511C28.4248 35.2972 28.9596 36.5882 29.9114 37.5401C30.8633 38.492 32.1543 39.0267 33.5004 39.0267C34.8466 39.0267 36.1376 38.492 37.0894 37.5401C38.0413 36.5882 38.576 35.2972 38.576 33.9511V27.2419H35.8725V33.9511ZM55.9791 27.9333C55.9791 26.5575 56.8888 26.1217 57.8852 26.1217C58.6888 26.1217 59.7495 26.7333 60.4439 27.475L62.2207 25.38C61.3334 24.18 59.5342 23.3508 58.0609 23.3508C55.1167 23.3508 52.9876 25.075 52.9876 27.9333C52.9876 33.2365 59.4692 31.5534 59.4692 34.5217C59.4692 35.4368 58.5804 36.245 57.5631 36.245C55.9582 36.245 55.438 35.4608 54.7009 34.6308L52.7283 36.6817C53.9902 38.2301 55.5464 39.0166 57.4098 39.0166C60.207 39.0166 62.4568 37.2716 62.4568 34.5433C62.4568 28.6564 55.9745 30.4858 55.9745 27.9333M96.0777 36.5113C94.4744 36.5113 94.0184 35.8177 94.0184 34.7555V30.0522H96.5113V27.6693H94.0184V24.5253L91.2669 25.7601V35.34C91.2669 37.7903 92.9577 39.0252 95.2756 39.0252C95.6395 39.0313 96.0034 39.0019 96.3611 38.9384L97.0323 36.4672C96.7296 36.4881 96.382 36.509 96.0777 36.509M46.2018 27.3201C44.8578 27.3201 43.9195 27.7103 43.0122 28.5999V23.4445H40.2947V33.0004C40.2947 36.5772 42.8805 39.0283 45.7869 39.0283C49.0106 39.0283 51.8465 36.5338 51.8465 33.1753C51.8465 29.8587 49.2367 27.3224 46.2018 27.3224M46.1848 36.293C45.7798 36.293 45.3788 36.2133 45.0046 36.0583C44.6304 35.9033 44.2905 35.6761 44.0041 35.3897C43.7177 35.1034 43.4905 34.7634 43.3356 34.3892C43.1806 34.0151 43.1008 33.614 43.1008 33.209C43.1008 32.804 43.1806 32.403 43.3356 32.0288C43.4905 31.6547 43.7177 31.3147 44.0041 31.0283C44.2905 30.7419 44.6304 30.5148 45.0046 30.3598C45.3788 30.2048 45.7798 30.125 46.1848 30.125C47.0027 30.125 47.7872 30.4499 48.3655 31.0283C48.9439 31.6067 49.2688 32.3911 49.2688 33.209C49.2688 34.027 48.9439 34.8114 48.3655 35.3897C47.7872 35.9681 47.0027 36.293 46.1848 36.293ZM75.7141 33.0329C75.7141 29.6682 72.8844 27.18 69.6545 27.18C66.7489 27.18 64.1624 29.6303 64.1624 33.2079V42.7692H66.8798V37.6068C67.7856 38.4948 68.7254 38.8866 70.0679 38.8866C73.1027 38.8866 75.7141 36.3503 75.7141 33.0329ZM73.1407 32.9988C73.1407 33.8168 72.8158 34.6012 72.2374 35.1795C71.659 35.7579 70.8746 36.0828 70.0567 36.0828C69.2387 36.0828 68.4543 35.7579 67.876 35.1795C67.2976 34.6012 66.9727 33.8168 66.9727 32.9988C66.9727 32.1809 67.2976 31.3965 67.876 30.8181C68.4543 30.2398 69.2387 29.9148 70.0567 29.9148C70.8746 29.9148 71.659 30.2398 72.2374 30.8181C72.8158 31.3965 73.1407 32.1809 73.1407 32.9988Z" fill="#33475B"/>
<path d="M84.495 27.0485V24.3179C84.8558 24.1492 85.1614 23.8816 85.376 23.5461C85.5906 23.2105 85.7056 22.821 85.7074 22.4227V22.36C85.7074 21.1987 84.766 20.2572 83.6047 20.2572H83.542C82.9843 20.2572 82.4495 20.4788 82.0551 20.8731C81.6608 21.2674 81.4393 21.8023 81.4393 22.36V22.4227C81.4411 22.821 81.556 23.2105 81.7707 23.5461C81.9853 23.8816 82.2908 24.1492 82.6517 24.3179V27.0485C81.6146 27.2073 80.6379 27.6373 79.8204 28.2949L72.3317 22.4621C72.3851 22.2694 72.4129 22.0712 72.416 21.8722C72.417 21.4036 72.2789 20.9452 72.0193 20.5551C71.7596 20.165 71.3902 19.8606 70.9575 19.6805C70.5249 19.5004 70.0486 19.4526 69.5888 19.5433C69.1291 19.6339 68.7065 19.8589 68.3746 20.1897C68.0427 20.5205 67.8164 20.9423 67.7242 21.4018C67.6321 21.8613 67.6783 22.3377 67.857 22.7709C68.0357 23.2041 68.3388 23.5746 68.7281 23.8355C69.1174 24.0964 69.5753 24.236 70.0439 24.2366C70.4539 24.2347 70.8562 24.1252 71.2106 23.9192L78.5848 29.6575C77.9224 30.6583 77.5768 31.8354 77.5931 33.0355C77.6094 34.2355 77.9868 35.4028 78.6762 36.3852L76.4333 38.6289C76.252 38.5709 76.0631 38.5401 75.8728 38.5375C75.4882 38.5378 75.1122 38.6521 74.7925 38.866C74.4728 39.0799 74.2237 39.3838 74.0766 39.7392C73.9296 40.0947 73.8912 40.4857 73.9663 40.863C74.0414 41.2402 74.2267 41.5868 74.4987 41.8588C74.7707 42.1308 75.1172 42.316 75.4944 42.3911C75.8717 42.4663 76.2627 42.4279 76.6182 42.2808C76.9736 42.1337 77.2775 41.8846 77.4914 41.5649C77.7053 41.2452 77.8196 40.8693 77.8199 40.4846C77.8174 40.2943 77.7866 40.1054 77.7286 39.9241L79.9474 37.7045C80.6709 38.2615 81.5124 38.6455 82.4073 38.8271C83.3022 39.0087 84.2268 38.9831 85.1102 38.7522C85.9937 38.5213 86.8125 38.0912 87.5041 37.4949C88.1957 36.8986 88.7416 36.1519 89.1 35.3121C89.4584 34.4722 89.6198 33.5615 89.5719 32.6496C89.524 31.7378 89.2679 30.8489 88.8234 30.0513C88.379 29.2537 87.7578 28.5683 87.0075 28.0478C86.2573 27.5274 85.3978 27.1855 84.495 27.0485ZM83.5753 36.0291C83.1652 36.0404 82.757 35.9694 82.3749 35.8202C81.9927 35.6711 81.6443 35.4469 81.3503 35.1608C81.0563 34.8748 80.8226 34.5327 80.663 34.1548C80.5034 33.7769 80.4212 33.3708 80.4212 32.9606C80.4212 32.5504 80.5034 32.1443 80.663 31.7664C80.8226 31.3885 81.0563 31.0464 81.3503 30.7604C81.6443 30.4743 81.9927 30.2501 82.3749 30.101C82.757 29.9518 83.1652 29.8808 83.5753 29.8921C84.37 29.9199 85.123 30.2551 85.6755 30.8271C86.2281 31.399 86.5371 32.1631 86.5375 32.9583C86.5379 33.7536 86.2297 34.518 85.6777 35.0905C85.1257 35.663 84.3731 35.9989 83.5784 36.0276" fill="#FF7A59"/>
</g>
<defs>
<clipPath id="clip0_3457_2840">
<rect width="82.0645" height="24" fill="white" transform="translate(14.9678 19.5)"/>
</clipPath>
</defs>
</svg>
