<svg width="136" height="77" viewBox="0 0 136 77" fill="none" xmlns="http://www.w3.org/2000/svg">
<g clip-path="url(#clip0_1697_1095)">
<g clip-path="url(#clip1_1697_1095)">
<path d="M100.825 42.4198C98.5641 42.4198 96.9706 40.6558 96.9706 38.3359C96.9706 36.0161 98.5641 34.2521 100.825 34.2521C103.085 34.2521 104.634 36.0161 104.634 38.3359C104.634 40.6558 103.063 42.4198 100.825 42.4198ZM100.461 44.8508C102.285 44.8508 103.834 44.1393 104.812 42.6495C104.997 44.0948 106.042 44.621 107.362 44.621H108.414V42.3308H107.962C107.214 42.3308 107.028 41.9677 107.028 41.1153V32.0582H104.612V33.9186C103.789 32.6141 102.24 31.8285 100.461 31.8285C97.2893 31.8285 94.3765 34.4893 94.3765 38.3359C94.3765 42.1826 97.2967 44.8434 100.461 44.8434V44.8508ZM88.0173 41.7082C88.0173 43.7687 89.2921 44.621 90.8189 44.621H93.7613V42.3308H91.6194C90.7299 42.3308 90.5447 41.9899 90.5447 41.1153V34.3484H93.7613V32.0582H90.5447V27.841H88.0173V41.7082ZM76.5069 44.621H79.0343V39.2327H79.8792L84.1854 44.621H87.3799L81.8878 37.7875L86.1051 32.0582H83.259L79.8125 36.8981H79.0343V27.841H76.5069V44.621ZM68.3022 31.8285C64.7668 31.8285 61.854 34.4893 61.854 38.3359C61.854 42.1826 64.7742 44.8434 68.3022 44.8434C71.8301 44.8434 74.7503 42.1826 74.7503 38.3359C74.7503 34.4893 71.8301 31.8285 68.3022 31.8285ZM68.3022 42.4198C66.0416 42.4198 64.4481 40.6558 64.4481 38.3359C64.4481 36.0161 66.0416 34.2521 68.3022 34.2521C70.5627 34.2521 72.1563 36.0161 72.1563 38.3359C72.1563 40.6558 70.5627 42.4198 68.3022 42.4198Z" fill="#191919"/>
<path fill-rule="evenodd" clip-rule="evenodd" d="M42.1451 25.0689L41.5967 31.8283C41.3373 31.7987 41.0778 31.7839 40.811 31.7839C40.4775 31.7839 40.1514 31.8061 39.8327 31.858L39.5214 28.582C39.514 28.4782 39.5955 28.3893 39.6993 28.3893H40.2552L39.9883 25.0763C39.9809 24.9725 40.0624 24.8836 40.1588 24.8836H41.9747C42.0784 24.8836 42.16 24.9725 42.1451 25.0763V25.0689ZM37.5647 25.4024C37.5351 25.306 37.4313 25.2467 37.3349 25.2838L35.6303 25.9064C35.5339 25.9434 35.4894 26.0546 35.5339 26.1436L36.9199 29.1675L36.3937 29.3602C36.2973 29.3973 36.2528 29.5085 36.2973 29.5974L37.7129 32.5695C38.2243 32.2879 38.7802 32.0729 39.3657 31.9395L37.5721 25.4024H37.5647ZM33.3845 27.285L37.3053 32.8141C36.8087 33.1402 36.3566 33.5256 35.9712 33.9703L33.6217 31.6579C33.5476 31.5837 33.555 31.4652 33.6291 31.3985L34.059 31.0427L31.7243 28.6784C31.6502 28.6042 31.6576 28.4857 31.7391 28.419L33.1251 27.2553C33.2066 27.1886 33.3178 27.2034 33.3771 27.285H33.3845ZM30.0937 30.4868C30.0122 30.4275 29.8936 30.4572 29.8417 30.5461L28.9375 32.1174C28.8856 32.2063 28.9227 32.3175 29.0116 32.362L32.0208 33.785L31.7391 34.2668C31.6872 34.3557 31.7243 34.4743 31.8206 34.5114L34.815 35.8825C35.0299 35.3266 35.319 34.8078 35.6747 34.3409L30.0937 30.4868ZM27.8776 34.7559C27.8925 34.6522 27.9962 34.5929 28.0926 34.6151L34.6519 36.3272C34.4814 36.8831 34.3851 37.4686 34.3703 38.0764L31.0869 37.8096C30.9831 37.8021 30.909 37.7058 30.9312 37.602L31.0276 37.0536L27.7146 36.7423C27.6108 36.7349 27.5441 36.6385 27.5589 36.5347L27.8702 34.7485L27.8776 34.7559ZM27.633 39.1881C27.5293 39.1955 27.4626 39.2919 27.4774 39.3957L27.7961 41.1819C27.8109 41.2856 27.9147 41.3449 28.011 41.3227L31.2277 40.4852L31.3241 41.0336C31.3389 41.1374 31.4427 41.1967 31.539 41.1745L34.7112 40.2999C34.5259 39.7514 34.4073 39.1659 34.3777 38.5656L27.6256 39.1881H27.633ZM28.6855 43.8871C28.6336 43.7982 28.6707 43.687 28.7596 43.6426L34.8817 40.7372C35.1114 41.2856 35.4227 41.7971 35.7933 42.2566L33.1103 44.1688C33.0288 44.2281 32.9102 44.2058 32.8583 44.1169L32.5766 43.6277L29.8417 45.5177C29.7602 45.577 29.6416 45.5474 29.5897 45.4584L28.6781 43.8871H28.6855ZM36.1046 42.6123L31.3389 47.4373C31.2648 47.5115 31.2722 47.6301 31.3537 47.6968L32.7471 48.8604C32.8286 48.9271 32.9398 48.9123 32.9991 48.8307L34.9261 46.1181L35.356 46.4812C35.4376 46.5479 35.5561 46.5331 35.6154 46.4442L37.4832 43.7315C36.9792 43.4202 36.5122 43.0422 36.112 42.6123H36.1046ZM35.1633 50.3576C35.067 50.3205 35.0225 50.2093 35.067 50.1204L37.8908 43.9539C38.4096 44.2207 38.9729 44.4208 39.5585 44.532L38.7283 47.719C38.7061 47.8153 38.5949 47.8746 38.4986 47.8376L37.9724 47.6449L37.0904 50.8541C37.0607 50.9505 36.9569 51.0098 36.8606 50.9727L35.1559 50.3501L35.1633 50.3576ZM40.0254 44.6135L39.4769 51.373C39.4695 51.4767 39.551 51.5657 39.6474 51.5657H41.4633C41.567 51.5657 41.6485 51.4767 41.6337 51.373L41.3669 48.0599H41.9228C42.0265 48.0599 42.1081 47.971 42.1007 47.8672L41.7894 44.5913C41.4707 44.6431 41.1446 44.6654 40.811 44.6654C40.5442 44.6654 40.2848 44.6505 40.0254 44.6135ZM46.5625 26.314C46.607 26.2177 46.5625 26.1139 46.4661 26.0769L44.7615 25.4543C44.6651 25.4172 44.5613 25.4765 44.5317 25.5729L43.6497 28.7821L43.1235 28.5894C43.0271 28.5524 42.9234 28.6117 42.8937 28.708L42.0636 31.895C42.6565 32.0136 43.2124 32.2137 43.7312 32.4731L46.5625 26.314ZM50.2832 29.0045L45.5175 33.8295C45.1172 33.3996 44.6577 33.0216 44.1463 32.7103L46.014 29.9976C46.0733 29.9161 46.1919 29.8939 46.2734 29.9606L46.7033 30.3238L48.6304 27.6111C48.6897 27.5295 48.8082 27.5147 48.8824 27.5814L50.2758 28.7451C50.3573 28.8118 50.3573 28.9304 50.2906 29.0045H50.2832ZM52.8624 32.7993C52.9588 32.7548 52.9884 32.6436 52.9366 32.5547L52.0249 30.9834C51.973 30.8945 51.8544 30.8722 51.7729 30.9241L49.038 32.8141L48.7564 32.3323C48.7045 32.2434 48.5859 32.2137 48.5044 32.2804L45.8213 34.1927C46.1919 34.6522 46.4958 35.1636 46.733 35.7121L52.855 32.8067L52.8624 32.7993ZM53.826 35.2599L54.1372 37.0462C54.1521 37.1499 54.0854 37.2389 53.9816 37.2537L47.2295 37.8837C47.1999 37.2759 47.0813 36.6978 46.896 36.1493L50.0682 35.2748C50.1646 35.2451 50.2683 35.3118 50.2832 35.4156L50.3795 35.9641L53.5962 35.1265C53.6925 35.1043 53.7963 35.1636 53.8111 35.2674L53.826 35.2599ZM53.5221 41.8193C53.6184 41.8415 53.7222 41.7822 53.737 41.6785L54.0483 39.8922C54.0631 39.7885 53.9964 39.6995 53.8927 39.6847L50.5796 39.3734L50.676 38.825C50.6908 38.7212 50.6241 38.6323 50.5203 38.6174L47.237 38.3506C47.2221 38.9584 47.1258 39.5439 46.9553 40.0998L53.5147 41.8119L53.5221 41.8193ZM51.7729 45.8957C51.721 45.9847 51.6024 46.0069 51.5209 45.955L45.9399 42.1009C46.2957 41.634 46.5847 41.1152 46.7997 40.5593L49.794 41.9305C49.8903 41.9749 49.9274 42.0861 49.8755 42.175L49.5939 42.6568L52.603 44.0798C52.692 44.1243 52.729 44.2355 52.6771 44.3244L51.7729 45.8957ZM44.3093 43.6203L48.2301 49.1494C48.2894 49.231 48.408 49.2458 48.4821 49.1791L49.8681 48.0155C49.9496 47.9488 49.9496 47.8302 49.8829 47.756L47.5483 45.3917L47.9781 45.036C48.0597 44.9693 48.0597 44.8507 47.9855 44.7765L45.636 42.4641C45.2432 42.9088 44.7985 43.3016 44.3019 43.6203H44.3093ZM44.2723 51.1506C44.1759 51.1877 44.0722 51.1284 44.0425 51.032L42.2489 44.4949C42.8344 44.3615 43.3903 44.1466 43.9017 43.8649L45.3173 46.837C45.3618 46.9333 45.3173 47.0445 45.221 47.0742L44.6948 47.2669L46.0807 50.2908C46.1252 50.3872 46.0807 50.491 45.9844 50.528L44.2797 51.1506H44.2723Z" fill="#191919"/>
</g>
</g>
<defs>
<clipPath id="clip0_1697_1095">
<rect width="135.884" height="76.4349" fill="white"/>
</clipPath>
<clipPath id="clip1_1697_1095">
<rect width="80.9431" height="26.6821" fill="white" transform="translate(27.4707 24.8764)"/>
</clipPath>
</defs>
</svg>
