<svg width="136" height="77" viewBox="0 0 136 77" fill="none" xmlns="http://www.w3.org/2000/svg">
<g clip-path="url(#clip0_1697_1030)">
<g clip-path="url(#clip1_1697_1030)">
<mask id="mask0_1697_1030" style="mask-type:luminance" maskUnits="userSpaceOnUse" x="18" y="28" width="99" height="20">
<path d="M18.9905 28.8062H116.896V47.806H18.9905V28.8062Z" fill="white"/>
</mask>
<g mask="url(#mask0_1697_1030)">
<path d="M60.6848 47.4073H57.1162L49.3174 39.4353H47.8635V47.4073H45.22V28.8058H54.0759C57.8033 28.8058 60.024 30.7988 60.024 34.1206C60.024 37.4423 57.8033 39.435 54.0759 39.435H52.7542L60.6848 47.4073ZM57.3805 34.1206C57.3805 32.234 56.3228 31.0647 54.0759 31.0647H47.8635V37.1764H54.0759C56.3228 37.1764 57.3805 36.0074 57.3805 34.1206ZM67.4535 47.8059C63.2236 47.8059 60.5799 44.6436 60.5799 40.4982C60.5799 36.3528 63.2236 33.1905 67.3213 33.1905C70.6256 33.1905 72.6085 35.0507 73.4808 37.8144C73.7981 38.8506 73.9302 39.9931 73.9302 41.1624V41.4283H63.1178C63.197 43.6602 64.8363 45.8126 67.4535 45.8126C69.7004 45.8126 70.7315 44.5108 70.9429 43.5541H73.6659C73.0313 45.813 70.9166 47.8059 67.4535 47.8059ZM63.1178 39.435H71.3923C71.2602 37.0437 69.9914 35.1835 67.3213 35.1835C64.6512 35.1835 63.197 37.1761 63.1178 39.435ZM74.0609 35.7152V33.5894H77.3655V30.4001H79.9034V33.5891H83.4721V35.7149H79.9034V44.0855C79.9034 45.0156 80.1678 45.3344 81.093 45.3344H83.4721V47.4073H80.5643C78.1585 47.4073 77.3655 46.2113 77.3655 44.0855V35.7146L74.0609 35.7152ZM90.7688 33.1905C94.9986 33.1905 97.7743 36.3528 97.7743 40.4982C97.7743 44.6436 94.9986 47.8059 90.7688 47.8059C86.539 47.8059 83.763 44.6436 83.763 40.4982C83.763 36.3528 86.539 33.1905 90.7688 33.1905ZM90.7688 35.3162C87.8873 35.3162 86.3009 37.7079 86.3009 40.4982C86.3009 43.2885 87.8873 45.6799 90.7688 45.6799C93.6503 45.6799 95.2364 43.2882 95.2364 40.4982C95.2364 37.7082 93.6503 35.3162 90.7688 35.3162ZM105.901 33.1905C110.131 33.1905 112.906 36.3528 112.906 40.4982C112.906 44.6436 110.131 47.8059 105.901 47.8059C101.671 47.8059 98.8953 44.6436 98.8953 40.4982C98.8953 36.3528 101.671 33.1905 105.901 33.1905ZM105.901 35.3162C103.019 35.3162 101.433 37.7079 101.433 40.4982C101.433 43.2885 103.019 45.6799 105.901 45.6799C108.782 45.6799 110.369 43.2882 110.369 40.4982C110.369 37.7082 108.782 35.3162 105.901 35.3162ZM116.913 28.8061V47.4073H114.375V28.8058L116.913 28.8061ZM30.6156 29.6778C30.6156 29.5633 30.593 29.4499 30.5492 29.3441C30.5054 29.2383 30.4411 29.1422 30.3602 29.0612C30.2792 28.9802 30.1831 28.916 30.0773 28.8722C29.9715 28.8284 29.8581 28.8058 29.7436 28.8058H19.8625C19.7479 28.8058 19.6345 28.8284 19.5287 28.8722C19.4229 28.9161 19.3267 28.9803 19.2458 29.0613C19.1648 29.1423 19.1006 29.2385 19.0568 29.3443C19.013 29.4501 18.9904 29.5636 18.9905 29.6781V33.747C18.9905 33.9783 19.0823 34.2 19.2459 34.3636C19.4094 34.5271 19.6312 34.619 19.8625 34.619H29.7439C29.8584 34.619 29.9718 34.6415 30.0776 34.6853C30.1834 34.7292 30.2795 34.7934 30.3605 34.8744C30.4414 34.9553 30.5057 35.0515 30.5495 35.1572C30.5933 35.263 30.6159 35.3764 30.6159 35.4909V36.6533C30.6159 36.8845 30.524 37.1063 30.3605 37.2698C30.1969 37.4334 29.9751 37.5252 29.7439 37.5252H23.35C23.1188 37.5252 22.897 37.6171 22.7335 37.7806C22.5699 37.9442 22.4781 38.1659 22.4781 38.3972V42.4658C22.4781 42.6971 22.5699 42.9189 22.7335 43.0824C22.897 43.2459 23.1188 43.3378 23.35 43.3378H29.7439C29.9751 43.3378 30.1969 43.4296 30.3605 43.5932C30.524 43.7567 30.6159 43.9785 30.6159 44.2097V46.5347C30.6159 46.7659 30.7077 46.9877 30.8711 47.1512C31.0346 47.3147 31.2563 47.4066 31.4875 47.4067H35.5564C35.6709 47.4067 35.7843 47.3841 35.8901 47.3403C35.9959 47.2965 36.092 47.2322 36.173 47.1513C36.254 47.0703 36.3182 46.9742 36.362 46.8684C36.4058 46.7626 36.4284 46.6492 36.4284 46.5347V42.4655C36.4284 42.351 36.4058 42.2376 36.362 42.1318C36.3182 42.026 36.254 41.9299 36.173 41.8489C36.092 41.7679 35.9959 41.7037 35.8901 41.6599C35.7843 41.6161 35.6709 41.5935 35.5564 41.5935H31.4875C31.2563 41.5935 31.0345 41.5017 30.8709 41.3381C30.7074 41.1746 30.6156 40.9528 30.6156 40.7215V39.5589C30.6156 39.3277 30.7075 39.106 30.8711 38.9425C31.0346 38.7791 31.2563 38.6873 31.4875 38.6873H35.5564C35.7877 38.6873 36.0095 38.5954 36.173 38.4319C36.3365 38.2683 36.4284 38.0465 36.4284 37.8153V33.7467C36.4284 33.5154 36.3365 33.2936 36.173 33.1301C36.0095 32.9666 35.7877 32.8747 35.5564 32.8747H31.4875C31.2563 32.8747 31.0345 32.7828 30.8709 32.6193C30.7074 32.4558 30.6156 32.234 30.6156 32.0027V29.6778Z" fill="#151515"/>
</g>
</g>
</g>
<defs>
<clipPath id="clip0_1697_1030">
<rect width="135.884" height="76.4349" fill="white"/>
</clipPath>
<clipPath id="clip1_1697_1030">
<rect width="98.2116" height="19.2752" fill="white" transform="translate(18.8364 28.5799)"/>
</clipPath>
</defs>
</svg>
