<svg width="136" height="77" viewBox="0 0 136 77" fill="none" xmlns="http://www.w3.org/2000/svg">
<g clip-path="url(#clip0_1697_1063)">
<g clip-path="url(#clip1_1697_1063)">
<path fill-rule="evenodd" clip-rule="evenodd" d="M39.52 28.0628L29.1084 48.4163H19.329L23.6863 39.9809H23.4908C19.8961 44.6472 14.5328 47.7191 6.89087 48.4163V40.0977C6.89087 40.0977 11.7796 39.8089 14.6535 36.7874H6.89087V28.063H15.6153V35.2387L15.8111 35.2379L19.3762 28.063H25.9742V35.1932L26.1701 35.1928L29.8689 28.0628H39.52Z" fill="#146EF5"/>
<path d="M96.2947 46.1698H99.1044V30.0417H96.2947V46.1698Z" fill="#080808"/>
<path fill-rule="evenodd" clip-rule="evenodd" d="M80.805 46.0051C81.4158 46.259 82.0367 46.3859 82.668 46.3859C83.711 46.3859 84.644 46.1321 85.4674 45.6243C86.2908 45.1166 86.9289 44.4166 87.3818 43.5247C87.8347 42.6258 88.0611 41.6069 88.0611 40.4679C88.0611 39.3288 87.8279 38.3099 87.3613 37.4111C86.8947 36.5122 86.2463 35.8157 85.416 35.3217C84.5858 34.8208 83.6423 34.5738 82.5856 34.5807C81.9132 34.5807 81.2682 34.711 80.6507 34.9718C80.0331 35.2325 79.5186 35.603 79.1068 36.0833C79.075 36.1199 79.0442 36.1569 79.0142 36.1942V30.0521H76.1941V46.1698H78.9936L78.988 44.6641C79.0605 44.7529 79.1378 44.8396 79.2201 44.9244C79.6661 45.3842 80.1944 45.7444 80.805 46.0051ZM83.6869 43.4012C83.2272 43.6824 82.7023 43.8232 82.1122 43.8232C81.529 43.8232 80.9937 43.6791 80.5066 43.3909C80.0194 43.0958 79.6317 42.6944 79.3435 42.1867C79.0623 41.679 78.9216 41.1026 78.9216 40.4576C78.9147 39.8126 79.052 39.2362 79.3333 38.7285C79.6214 38.2139 80.0091 37.8159 80.4963 37.5346C80.9835 37.2464 81.5221 37.1057 82.1122 37.1126C82.7023 37.1057 83.2272 37.2429 83.6869 37.5243C84.1535 37.7987 84.5103 38.1933 84.7573 38.7079C85.0111 39.2156 85.1381 39.7989 85.1381 40.4576C85.1381 41.1163 85.0111 41.6995 84.7573 42.2073C84.5103 42.715 84.1535 43.113 83.6869 43.4012Z" fill="#080808"/>
<path d="M43.5903 31.0195H46.8015L49.6741 41.5101L52.7299 31.0195H55.4059L58.7201 41.2996L61.4783 31.0195H64.4219L60.0786 46.1698H57.3099L53.94 36.1269L50.8464 46.1698H48.0468L43.5903 31.0195Z" fill="#080808"/>
<path fill-rule="evenodd" clip-rule="evenodd" d="M69.1644 46.4374C68.0459 46.4441 67.0373 46.1971 66.1384 45.6963C65.2465 45.1885 64.5432 44.4852 64.0285 43.5864C63.5208 42.6875 63.2668 41.6617 63.2668 40.5089C63.2668 39.3906 63.5277 38.3785 64.0491 37.4727C64.5705 36.567 65.2773 35.8603 66.1693 35.3525C67.0613 34.8448 68.0562 34.5909 69.1541 34.5909C70.3891 34.5909 71.4699 34.8654 72.3962 35.4143C73.3293 35.9632 74.0258 36.742 74.4855 37.7506C74.952 38.7524 75.1202 39.9017 74.9898 41.1985H66.1737C66.1983 41.7152 66.3272 42.1853 66.5604 42.6085C66.8212 43.0751 67.1849 43.4388 67.6513 43.6996C68.1179 43.9603 68.6395 44.0906 69.2158 44.0906C69.655 44.0838 70.0632 44.0083 70.4406 43.8643C70.818 43.7133 71.137 43.5109 71.3978 43.257C71.6653 43.0031 71.854 42.7149 71.9638 42.3925H74.9075C74.7291 43.1815 74.3723 43.8849 73.8371 44.5024C73.3019 45.113 72.6294 45.5899 71.8198 45.933C71.0101 46.276 70.1249 46.4441 69.1644 46.4374ZM66.5707 38.3682C66.4062 38.6549 66.2924 38.9637 66.229 39.2945H72.0729C72.0305 38.8766 71.9015 38.4957 71.6859 38.152C71.439 37.7472 71.1028 37.435 70.6773 37.2154C70.2519 36.989 69.7716 36.8758 69.2364 36.8758C68.6669 36.8758 68.1489 37.0061 67.6823 37.2669C67.2157 37.5276 66.8451 37.8947 66.5707 38.3682Z" fill="#080808"/>
<path d="M90.1298 34.8276C90.1298 33.9082 90.3392 33.0917 90.7577 32.3781C91.1762 31.6576 91.7629 31.0984 92.5177 30.7004C93.2792 30.2956 94.1679 30.0863 95.1833 30.0726V32.5736C94.7098 32.5805 94.3051 32.68 93.9689 32.8721C93.6395 33.0574 93.3856 33.3284 93.2072 33.6852C93.0429 34.0137 92.9543 34.3945 92.9413 34.8276H95.1216V37.2052H92.9396V46.1698H90.1298V37.2052H88.3184V34.8276H90.1298Z" fill="#080808"/>
<path fill-rule="evenodd" clip-rule="evenodd" d="M106.248 46.4168C105.102 46.4168 104.076 46.1663 103.171 45.6654C102.272 45.1577 101.565 44.4577 101.05 43.5658C100.543 42.6669 100.289 41.648 100.289 40.509C100.289 39.3631 100.543 38.3407 101.05 37.4419C101.565 36.5361 102.272 35.8328 103.171 35.3319C104.076 34.831 105.102 34.5806 106.248 34.5806C107.401 34.5806 108.43 34.831 109.336 35.3319C110.248 35.8328 110.959 36.5327 111.466 37.4316C111.974 38.3304 112.231 39.3562 112.238 40.509C112.231 41.648 111.974 42.6669 111.466 43.5658C110.965 44.4577 110.259 45.1577 109.346 45.6654C108.434 46.1663 107.401 46.4168 106.248 46.4168ZM106.248 43.8334C106.852 43.8334 107.387 43.6962 107.854 43.4217C108.32 43.1404 108.681 42.7492 108.934 42.2483C109.188 41.7406 109.315 41.1608 109.315 40.509C109.315 39.8503 109.188 39.267 108.934 38.7593C108.681 38.2515 108.32 37.8604 107.854 37.5859C107.387 37.3046 106.852 37.164 106.248 37.164C105.651 37.164 105.119 37.3046 104.653 37.5859C104.193 37.8604 103.836 38.2515 103.582 38.7593C103.328 39.267 103.205 39.8503 103.212 40.509C103.212 41.1608 103.339 41.7406 103.593 42.2483C103.853 42.7492 104.21 43.1404 104.663 43.4217C105.123 43.6962 105.651 43.8334 106.248 43.8334Z" fill="#080808"/>
<path d="M115.274 34.8277H112.145L115.531 46.1698H118.269L120.496 38.9256L122.901 46.1698H125.597L128.994 34.8277H126.164L124.237 41.8874L122.108 34.8277H119.37L117.252 42.043L115.274 34.8277Z" fill="#080808"/>
</g>
</g>
<defs>
<clipPath id="clip0_1697_1063">
<rect width="135.884" height="76.4349" fill="white"/>
</clipPath>
<clipPath id="clip1_1697_1063">
<rect width="122.102" height="20.4635" fill="white" transform="translate(6.89087 27.9856)"/>
</clipPath>
</defs>
</svg>
