<svg width="127" height="18" viewBox="0 0 127 18" fill="none" xmlns="http://www.w3.org/2000/svg">
<g clip-path="url(#clip0_661_12)">
<path d="M2.878 4.99C2.878 3.01 1.875 1.374 0 0H4.358C5.12623 0.585117 5.74868 1.34003 6.17666 2.2057C6.60464 3.07137 6.82654 4.02432 6.825 4.99C6.82654 5.95568 6.60464 6.90863 6.17666 7.7743C5.74868 8.63997 5.12623 9.39488 4.358 9.98C5.773 10.57 6.578 12.01 6.578 14.071V17.998H2.632V14.071C2.632 12.108 1.695 10.734 0.001 9.981C1.876 8.606 2.879 6.971 2.879 4.991L2.878 4.99ZM11.43 4.99C11.43 3.01 10.427 1.374 8.552 0H12.911C13.6791 0.58522 14.3013 1.34018 14.7291 2.20585C15.1569 3.07151 15.3787 4.0244 15.377 4.99C15.3787 5.9556 15.1569 6.90849 14.7291 7.77415C14.3013 8.63982 13.6791 9.39478 12.911 9.98C14.325 10.57 15.131 12.01 15.131 14.071V17.998H11.184V14.071C11.184 12.108 10.246 10.734 8.552 9.981C10.427 8.606 11.43 6.971 11.43 4.991V4.99ZM19.984 4.99C19.984 3.01 18.981 1.374 17.106 0H21.464C22.2322 0.585117 22.8547 1.34003 23.2827 2.2057C23.7106 3.07137 23.9325 4.02432 23.931 4.99C23.9325 5.95568 23.7106 6.90863 23.2827 7.7743C22.8547 8.63997 22.2322 9.39488 21.464 9.98C22.879 10.57 23.684 12.01 23.684 14.071V17.998H19.737V14.071C19.737 12.108 18.8 10.734 17.106 9.981C18.981 8.606 19.984 6.971 19.984 4.991V4.99ZM35.952 14.728H32.96V3.272H40.312C43.848 3.272 45.591 4.582 45.591 6.725C45.591 8.181 44.736 9.277 43.141 9.834C44.785 10.079 45.525 10.946 45.525 12.501V14.726H42.499V12.632C42.499 11.322 41.841 10.799 40.114 10.799H35.954V14.728H35.952ZM40.146 4.941H35.952V9.131H40.113C41.626 9.131 42.563 8.296 42.563 6.987C42.563 5.694 41.693 4.941 40.146 4.941ZM50.787 3.272H47.794V14.728H50.787V3.272ZM59.964 10.995H56.313V14.726H53.319V3.272H60.029C63.565 3.272 65.424 4.745 65.424 7.102C65.424 9.539 63.533 10.995 59.964 10.995ZM59.898 4.941H56.313V9.326H59.865C61.411 9.326 62.365 8.541 62.365 7.118C62.365 5.727 61.411 4.941 59.898 4.941ZM73.845 10.995H70.194V14.726H67.2V3.272H73.91C77.446 3.272 79.305 4.745 79.305 7.102C79.305 9.539 77.413 10.995 73.845 10.995ZM73.779 4.941H70.194V9.326H73.746C75.292 9.326 76.246 8.541 76.246 7.118C76.246 5.727 75.292 4.941 73.779 4.941ZM84.074 3.272V13.024H91.541V14.728H81.081V3.272H84.074ZM96.407 3.272H93.414V14.728H96.407V3.272ZM100.914 7.101V14.728H98.94V3.272H101.179L109.336 10.897V3.272H111.31V14.728H109.073L100.914 7.101ZM121.08 4.614C118.234 4.614 116.376 6.414 116.376 9.097C116.376 11.747 118.152 13.384 120.915 13.384H121.112C122.05 13.384 123.102 13.187 124.073 12.877V9.784H119.238V8.148H127V13.531C125.389 14.366 122.954 15.021 120.981 15.021H120.718C116.178 15.021 113.251 12.631 113.251 9.162C113.251 5.726 116.261 2.978 120.882 2.978H121.145C123.07 2.978 125.273 3.583 126.902 4.532L126.046 5.922C124.583 5.121 122.839 4.614 121.277 4.614H121.08Z" fill="black"/>
</g>
<defs>
<clipPath id="clip0_661_12">
<rect width="127" height="18" fill="white"/>
</clipPath>
</defs>
</svg>
