<svg width="186" height="72" viewBox="0 0 186 72" fill="none" xmlns="http://www.w3.org/2000/svg">
<g opacity="0.1">
<rect width="186" height="72" rx="12" fill="white"/>
<rect x="8" y="8" width="56" height="56" rx="8" fill="#0DAC65"/>
<path d="M79 30V20H87V30H79ZM87 30V20H95V30H87ZM95 30V20H103V30H95ZM103 30V20H111V30H103ZM111 30V20H119V30H111Z" fill="#0DAC65"/>
<path d="M79.125 53V44.25H86.125V53H79.125ZM86.125 53V44.25H93.125V53H86.125ZM93.125 53V44.25H100.125V53H93.125ZM100.125 53V44.25H107.125V53H100.125ZM107.125 53V44.25H114.125V53H107.125ZM114.125 53V44.25H121.125V53H114.125ZM121.125 53V44.25H128.125V53H121.125ZM131.625 53V44.25H138.625V53H131.625ZM138.625 53V44.25H145.625V53H138.625ZM145.625 53V44.25H152.625V53H145.625Z" fill="#0DAC65"/>
</g>
</svg>
