<svg width="160" height="80" viewBox="0 0 160 80" fill="none" xmlns="http://www.w3.org/2000/svg">
<g clip-path="url(#clip0_150_1542)">
<path d="M14.3185 46.4837L25.8591 39.2883H31.8665C32.0641 39.2883 32.2222 39.4465 32.2222 39.6442C32.2222 39.8023 32.1431 39.8814 32.0641 39.9209L26.3728 43.3209C26.0171 43.5581 25.8591 43.993 25.8591 44.3093V46.4442H33.0917V33.9907C33.0917 33.7535 32.894 33.5558 32.6174 33.5558H25.7405L14.2 40.7116V46.4837H14.3185Z" fill="#000C2C"/>
<path d="M109.054 46.4837H119.448V43.6767H112.334V41.3442H118.065V38.5372H112.334V36.3628H119.448V33.5558H109.054V46.4837Z" fill="#000C2C"/>
<path d="M43.7628 33.5558L38.783 46.4837H42.1819L43.0514 44.0721H48.5845L49.4145 46.4837H52.932L47.9522 33.5558H43.7628ZM44.0394 41.3046L45.8575 36.2442L47.636 41.3046H44.0394Z" fill="#000C2C"/>
<path d="M67.081 36.3628H71.2309V46.4837H74.5112V36.3628H78.6611V33.5558H67.0415V36.3628H67.081Z" fill="#000C2C"/>
<path d="M62.2988 41.5023C62.2988 43.1627 61.2712 43.8744 59.4927 43.8744C57.7932 43.8744 56.6866 43.1627 56.6866 41.5023V33.5162H53.4062V41.8976C53.4062 45.6139 56.7261 46.8 59.5322 46.8C62.2988 46.8 65.6187 45.6534 65.6187 41.8976V33.5162H62.3383L62.2988 41.5023Z" fill="#000C2C"/>
<path d="M146.6 33.5558H142.687L137.984 38.8139V33.5558H134.704V46.4837H137.984V41.5814L142.45 46.4837H146.6L140.593 40.1186L146.6 33.5558Z" fill="#000C2C"/>
<path d="M101.307 33.5558H95.2605V46.4837H101.307C105.932 46.4837 107.196 44.7442 107.196 39.9209C107.196 35.3744 105.971 33.5558 101.307 33.5558ZM101.149 43.6767H98.5409V36.3628H101.149C103.204 36.3628 103.837 36.9163 103.837 39.9209C103.837 42.6488 103.165 43.6767 101.149 43.6767Z" fill="#000C2C"/>
<path d="M129.408 38.8534L126.404 38.4976C124.665 38.3 124.191 37.8651 124.191 37.272C124.191 36.6 125.1 36.0069 126.839 36.0069C128.538 36.0069 129.408 36.6395 129.566 37.5883H132.807C132.649 34.9 130.356 33.2 127.036 33.2C123.084 33.2 121.068 34.7813 121.068 37.5883C121.068 39.8418 122.412 40.9488 125.139 41.2255L128.183 41.5418C129.329 41.6604 129.882 42.1348 129.882 42.6883C129.882 43.3604 129.092 43.9534 127.234 43.9534C125.06 43.9534 124.191 43.4 124.072 42.293H120.91C121.068 45.2581 123.005 46.8 127.155 46.8C130.949 46.8 133.044 45.1395 133.044 42.6488C133.004 40.4348 131.74 39.1302 129.408 38.8534Z" fill="#000C2C"/>
<path d="M86.3284 33.2C81.6252 33.2 79.2144 36.086 79.2144 39.9604C79.2144 43.8744 81.6647 46.7604 86.3284 46.7604C91.0315 46.7604 93.4819 43.8744 93.4819 39.9604C93.4819 36.086 91.0315 33.2 86.3284 33.2ZM86.3284 43.8744C83.878 43.8744 82.5738 42.372 82.5738 39.9604C82.5738 37.5883 83.9175 36.086 86.3284 36.086C88.7788 36.086 90.083 37.5883 90.083 39.9604C90.1225 42.4116 88.7788 43.8744 86.3284 43.8744Z" fill="#000C2C"/>
</g>
<defs>
<clipPath id="clip0_150_1542">
<rect width="132.4" height="13.6" fill="white" transform="translate(14.2 33.2)"/>
</clipPath>
</defs>
</svg>
