<svg width="156" height="80" viewBox="0 0 156 80" fill="none" xmlns="http://www.w3.org/2000/svg">
<g clip-path="url(#clip0_150_1548)">
<path d="M48.2208 48.2731C48.3115 48.3864 48.4702 48.2504 48.4022 48.1371L37.9246 30.0086L35.9515 26.5868C35.8608 26.4509 35.7247 26.4282 35.6567 26.4282C35.5886 26.4282 35.4526 26.4735 35.4072 26.6322L32.5497 36.1497C32.0961 37.6453 33.23 39.1409 34.7722 39.1409H37.6297C39.2853 39.1409 40.8728 39.866 41.9614 41.1123L48.2208 48.2731Z" fill="#000C2C"/>
<path d="M30.5768 36.7615L32.7993 29.3515C32.8446 29.2155 32.6632 29.1475 32.5952 29.2608L19.8723 51.2643C19.7816 51.423 19.8497 51.5363 19.9177 51.6042C19.9857 51.6722 20.0991 51.7402 20.2579 51.6722L20.3032 51.6495L31.5973 47.5026C32.958 47.0041 33.525 45.4179 32.7993 44.1715L31.0984 41.271C30.3273 39.9113 30.1232 38.2798 30.5768 36.7615Z" fill="#000C2C"/>
<path d="M46.361 53.3491H49.7401C49.8989 53.3491 49.9896 53.2357 50.0123 53.1678C50.035 53.0998 50.0803 52.9865 49.9669 52.8505L41.4623 43.1291C40.4191 41.9281 38.4914 42.1094 37.6977 43.4917L36.0875 46.3016C35.4071 47.4573 34.3639 48.341 33.0939 48.8169L21.2782 53.1451C21.1648 53.1904 21.1875 53.3717 21.3235 53.3717L46.361 53.3491Z" fill="#000C2C"/>
<path d="M105.689 49.021C100.654 49.021 96.5495 44.9194 96.5495 39.8887C96.5495 34.858 100.654 30.7565 105.689 30.7565C110.724 30.7565 114.829 34.858 114.829 39.8887C114.829 44.9194 110.724 49.021 105.689 49.021ZM105.689 29.2609C99.838 29.2609 95.0527 34.0196 95.0527 39.8887C95.0527 45.7352 99.8153 50.4939 105.689 50.4939C111.54 50.4939 116.326 45.7352 116.326 39.8887C116.303 34.0196 111.54 29.2609 105.689 29.2609Z" fill="#000C2C"/>
<path d="M85.55 40.7951C85.7314 40.7951 85.9128 40.8857 86.0262 41.0444L92.0588 49.9727H93.8504L87.2736 40.2059C87.1375 39.9793 87.1375 39.7074 87.2736 39.5034L93.8504 29.7367H92.0588L86.0262 38.665C85.9128 38.8236 85.7541 38.9143 85.55 38.9143C85.3685 38.9143 85.1871 38.8236 85.0737 38.665L79.0411 29.7594H77.2495L83.8264 39.5261C83.9625 39.7527 83.9625 40.0246 83.8264 40.2286L77.2495 49.9953H79.0411L85.0737 41.067C85.1644 40.9084 85.3459 40.7951 85.55 40.7951Z" fill="#000C2C"/>
<path d="M137.371 49.9953V29.7593H135.897V47.7519L122.721 30.3031C122.358 29.8499 121.791 29.6233 121.224 29.6913C120.385 29.782 119.75 30.5298 119.75 31.3909V50.0179H121.224V31.4362C121.224 31.2096 121.496 31.1189 121.632 31.3002L135.761 49.9953H137.371Z" fill="#000C2C"/>
<path d="M65.4113 31.7309C65.57 31.7309 65.7288 31.8215 65.7968 31.9801L73.8024 49.9954H75.4126L66.84 30.7338C66.5906 30.1446 66.0236 29.7594 65.3886 29.7594C64.7536 29.7594 64.1866 30.1446 63.9598 30.7111L55.3872 49.9954H56.9974L59.4694 44.4435H69.9924C70.1058 44.4435 70.1965 44.3755 70.2418 44.2849L70.7408 43.1745H60.0364L65.0257 31.9801C65.0938 31.8215 65.2298 31.7309 65.4113 31.7309Z" fill="#000C2C"/>
</g>
<defs>
<clipPath id="clip0_150_1548">
<rect width="118.4" height="27.8" fill="white" transform="translate(19.3999 26)"/>
</clipPath>
</defs>
</svg>
