<svg width="160" height="80" viewBox="0 0 160 80" fill="none" xmlns="http://www.w3.org/2000/svg">
<path d="M43.6948 18.6565C42.6183 18.6539 41.4159 18.7796 40.1117 19.112C40.1117 19.112 33.4244 20.775 26.0537 27.6715C26.0537 27.6715 22.5392 31.242 20.0497 35.8396C20.0497 35.8396 17.4627 40.6329 17.0722 44.6437C17.0722 44.6437 16.6817 49.1435 19.2199 51.4423C19.2199 51.4423 22.1487 54.1324 28.5431 53.5944C28.5431 53.5944 32.5457 53.1053 36.8901 50.3663C36.8901 50.3663 38.989 48.9968 40.3558 47.7251C40.3558 47.7251 39.7212 50.0239 40.6486 51.6869C40.6486 51.6869 41.5273 53.252 43.5286 53.5944C43.5286 53.5944 44.993 53.8879 47.0919 53.1053C47.0919 53.1053 48.4098 52.5184 49.2885 52.0782C49.2885 52.0782 51.0945 51.0999 52.8518 49.7304C52.8518 49.7304 52.5101 51.0999 53.2911 52.2738C53.2911 52.2738 54.2185 53.5944 55.927 53.7411C55.927 53.7411 60.5154 54.0835 66.9098 46.2088L62.419 53.4477L66.5193 53.3988L70.0826 47.236C70.0826 47.236 73.7924 40.8775 74.5734 40.0949C74.5734 40.0949 76.4771 37.5515 79.357 36.9646L81.2607 37.1113C81.2607 37.1113 82.0417 37.5026 82.0417 38.383L80.6261 38.1385C80.6261 38.1385 79.7963 38.2363 79.357 39.1167C79.357 39.1167 78.9665 39.9482 79.1618 40.7797C79.1618 40.7797 79.4058 41.4644 80.0404 41.709L80.4797 41.8557L81.8953 41.6601C81.8953 41.6601 84.3847 40.7308 87.8016 36.4266L87.0206 37.845L84.1406 42.785L80.7726 48.7522C80.7726 48.7522 79.7963 50.7087 80.2356 51.8825C80.2356 51.8825 80.6749 53.0075 82.1393 53.3009L85.3121 53.0564C85.3121 53.0564 87.1182 52.5184 88.5826 51.2467L90.6815 49.5348C90.6815 49.5348 93.2198 47.3827 95.514 44.8393L95.3675 45.035C95.3675 45.035 93.3662 48.7033 93.0245 49.9261C93.0245 49.9261 92.2435 52.5184 94.0496 53.5455L96.0997 53.7411C96.0997 53.7411 97.8082 53.4966 99.5166 52.2738L102.299 49.8772C102.299 49.8772 104.691 47.6272 105.96 46.0132C105.96 46.0132 105.325 47.4805 105.179 48.5566C105.179 48.5566 104.691 51.9803 107.864 53.3499L110.841 53.5944C110.841 53.5944 112.013 53.4966 113.819 52.8607C113.819 52.8607 118.017 51.4912 123.923 46.0621C123.923 46.0621 126.9 43.3231 128.999 40.8775L121.58 53.3499H125.241L127.974 48.7522L131.489 43.0296C131.489 43.0296 133.49 39.8504 137.151 37.7961C137.151 37.7961 138.615 36.9157 139.738 36.7201C139.738 36.7201 140.91 36.4755 141.154 37.0624C141.154 37.0624 139.494 36.7201 139.104 38.4319C139.104 38.4319 138.713 40.1438 140.08 40.6819C140.08 40.6819 141.105 41.0242 141.935 40.4373C141.935 40.4373 142.667 39.8993 142.911 38.8721C142.911 38.8721 143.106 37.845 142.618 37.1113C142.618 37.1113 142.032 36.2309 140.666 36.1331C140.666 36.1331 139.152 36.0842 136.126 38.0896C136.126 38.0896 133.881 39.5569 132.953 40.4862L135.443 36.2309H131.733C131.733 36.2309 128.218 42.1981 122.019 47.3338C122.019 47.3338 115.966 52.2738 112.55 52.4205C112.55 52.4205 109.23 52.6651 108.889 50.1217C108.889 50.1217 108.693 48.6055 109.572 46.4534C109.572 46.4534 111.622 46.649 114.356 45.7686C114.356 45.7686 116.943 44.9371 119.09 43.4698C119.09 43.4698 121.385 41.9046 122.214 40.2417C122.214 40.2417 123.191 38.383 122.068 36.8179C122.068 36.8179 120.018 34.8125 115.576 36.6711C115.576 36.6711 110.988 38.5787 107.571 43.1274L106.692 44.448L106.594 44.5948L104.154 47.4316L101.664 49.9261C101.664 49.9261 98.638 52.9097 97.1248 52.0293C97.1248 52.0293 96.539 51.638 96.539 50.7087C96.539 50.7087 96.539 49.7793 97.2224 48.6544L104.3 36.3288H101.127C101.127 36.3288 99.3702 39.2145 97.32 41.9535C97.32 41.9535 93.3174 47.2849 88.9731 50.3663C88.9731 50.3663 85.9955 52.6651 84.3359 51.8825C84.3359 51.8825 83.6037 51.5401 83.6525 50.6108C83.6525 50.6108 83.7013 49.5837 84.6776 48.1653L91.609 36.3288L95.4652 36.2799L95.9533 35.7907H92.0483L96.1973 28.4051L92.6828 28.4541C92.6828 28.4541 90.2422 32.6115 88.3873 35.106C88.3873 35.106 84.9705 39.6058 82.1393 40.8286C82.1393 40.8286 82.6275 40.1927 82.6763 39.2145L82.6275 38.4319C82.6275 38.4319 82.4322 37.4048 81.456 36.9157L80.5773 36.6711L78.9177 36.8179C78.9177 36.8179 76.9652 37.2581 75.1591 38.8232L76.6723 36.2799H73.1578C73.1578 36.2799 69.985 41.9535 65.8359 46.7958C65.8359 46.7958 60.4177 53.0564 57.4402 52.3227C57.4402 52.3227 56.5615 51.8825 56.5127 50.8065C56.5127 50.8065 56.5127 49.7304 57.4402 48.2142L64.518 36.2309L61.0035 36.2799L59.8808 38.2363L59.1486 39.6547C59.1486 39.6547 59.295 39.2145 59.1486 38.2852C59.1486 38.2852 58.8557 36.0842 56.7568 35.644L55.0972 35.4973C55.0972 35.4973 50.8993 35.4484 46.1156 39.6547C46.1156 39.6547 42.8452 42.5894 40.3558 47.0403C40.3558 47.0403 35.3769 51.6869 30.1051 52.714C30.1051 52.714 25.4191 53.6922 23.4178 51.5891C23.4178 51.5891 21.2212 49.3391 21.2212 45.4262C21.2212 45.4262 21.27 40.7797 24.5893 34.4701C24.5893 34.4701 28.1038 29.2855 30.2516 26.9378C30.2516 26.9378 35.7186 20.9217 41.3808 19.4055C41.3808 19.4055 46.018 18.1827 48.6051 20.2859C48.6051 20.2859 50.8017 22.0956 50.9969 25.7639L52.266 23.6118C52.266 23.6118 53.8768 21.0685 55.2924 19.6011C55.2924 19.6011 53.9745 20.1881 52.3637 20.3837C52.3637 20.3837 50.3623 20.6283 49.3861 20.0413C49.3861 20.0413 47.2116 18.665 43.6948 18.6565ZM55.6158 35.9405C57.0459 35.9478 57.7818 36.6222 57.7818 36.6222C59.4903 38.1874 58.1235 41.1221 58.1235 41.1221C55.4877 46.6001 51.6315 49.9261 51.6315 49.9261L49.2885 51.5891C45.6275 53.3988 44.0655 52.1271 44.0655 52.1271C42.7964 51.051 43.3333 48.6055 43.3333 48.6055C43.675 46.9425 45.0418 44.5458 45.0418 44.5458L47.6776 40.6819C50.0695 38.0407 52.803 36.6711 52.803 36.6711C53.9272 36.1163 54.8667 35.9367 55.6158 35.9405ZM118.409 36.3716C118.458 36.371 118.506 36.3731 118.554 36.3777C118.554 36.3777 119.335 36.4755 119.676 36.8668C119.676 36.8668 120.018 37.3559 119.92 38.3341C119.92 38.3341 119.676 40.9264 116.796 43.372C116.796 43.372 113.526 46.1599 109.718 46.0621L110.451 44.5458C110.451 44.5458 112.11 41.3177 114.551 38.8232C114.551 38.8232 116.887 36.3902 118.409 36.3716Z" fill="#000C2C"/>
<path d="M103.568 30.8991C103.568 30.8991 103.568 31.535 104.056 32.0241C104.056 32.0241 104.496 32.4643 105.179 32.4643C105.179 32.4643 105.813 32.4643 106.253 32.0241C106.253 32.0241 106.692 31.535 106.692 30.8991L106.253 29.7742C106.253 29.7742 105.765 29.334 105.179 29.334C105.179 29.334 104.496 29.334 104.056 29.7742C104.056 29.7742 103.568 30.2144 103.568 30.8991Z" fill="#000C2C"/>
</svg>
