<svg width="160" height="80" viewBox="0 0 160 80" fill="none" xmlns="http://www.w3.org/2000/svg">
<path d="M24.0934 40.6226C23.3086 40.6226 22.6546 41.2758 22.6546 42.0597C22.6546 42.8653 23.3086 43.4968 24.0934 43.4968C24.9 43.4968 25.5322 42.8436 25.5322 42.0597C25.5322 41.2758 24.8782 40.6226 24.0934 40.6226ZM19.777 36.3113C18.9922 36.3113 18.3382 36.9645 18.3382 37.7484C18.3382 38.554 18.9922 39.1855 19.777 39.1855C20.5836 39.1855 21.2158 38.5323 21.2158 37.7484C21.2158 36.9645 20.5618 36.3113 19.777 36.3113ZM19.777 44.9556C18.9922 44.9556 18.3382 45.6089 18.3382 46.3927C18.3382 47.1766 18.9922 47.8298 19.777 47.8298C20.5836 47.8298 21.2158 47.1766 21.2158 46.3927C21.2158 45.5871 20.5618 44.9556 19.777 44.9556ZM19.777 40.6226C18.9922 40.6226 18.3382 41.2758 18.3382 42.0597C18.3382 42.8436 18.9922 43.4968 19.777 43.4968C20.5836 43.4968 21.2158 42.8436 21.2158 42.0597C21.2158 41.2758 20.5618 40.6226 19.777 40.6226ZM15.4388 40.6226C14.6322 40.6226 14 41.2758 14 42.0597C14 42.8653 14.654 43.4968 15.4388 43.4968C16.2236 43.4968 16.8776 42.8436 16.8776 42.0597C16.8776 41.2758 16.2454 40.6226 15.4388 40.6226ZM142.38 47.8298H144.8V32.196H142.38V47.8298ZM115.784 47.8298H118.182V36.3113H115.784V47.8298ZM116.961 32C116.177 32 115.523 32.6532 115.523 33.4371C115.523 34.221 116.177 34.8742 116.961 34.8742C117.768 34.8742 118.4 34.221 118.4 33.4371C118.422 32.6315 117.768 32 116.961 32ZM137.868 43.4968C137.868 45.3258 136.821 46.4581 135.143 46.4581C133.791 46.4581 133.05 45.7177 133.05 44.6073C133.05 43.3444 133.922 42.5605 135.84 42.5605H137.868V43.4968ZM135.535 35.9629C133.638 35.9629 132.309 36.6161 131.306 37.4871V39.2944C132.287 38.2056 133.508 37.6613 134.903 37.6613C136.734 37.6613 137.889 38.6629 137.889 40.7315V41.1887H135.709C132.287 41.1887 130.63 42.604 130.63 44.6508C130.63 46.6105 132.156 48.1129 134.336 48.1129C136.102 48.1129 137.301 47.2202 137.889 45.9355V47.8081H140.287V40.6444C140.266 37.6831 138.543 35.9629 135.535 35.9629ZM92.8724 40.6226C93.1558 38.7936 94.2022 37.5306 95.9462 37.5306C97.5594 37.5306 98.6494 38.5758 98.693 40.6226H92.8724ZM96.0116 35.9629C92.5018 35.9629 90.2346 38.4669 90.2346 41.9726C90.2346 45.696 92.807 48.1565 96.4694 48.1565C98.3006 48.1565 99.8048 47.525 100.742 46.6105V45.1298C99.8702 45.979 98.4968 46.4581 97.1234 46.4581C94.6382 46.4581 92.916 44.9556 92.7852 42.0161H101.113V41.254C101.091 37.9226 99.1072 35.9629 96.0116 35.9629ZM126.205 46.4581C123.632 46.4581 122.237 44.5419 122.237 42.0379C122.237 39.4685 123.741 37.7048 126.139 37.7048C127.425 37.7048 128.494 38.1839 129.431 39.3161V37.5089C128.581 36.5726 127.295 35.9847 125.638 35.9847C122.128 35.9847 119.665 38.6411 119.665 42.1032C119.665 45.5435 122.15 48.2 125.616 48.2C127.077 48.2 128.406 47.721 129.584 46.5452V44.9556C128.777 45.8919 127.491 46.4581 126.205 46.4581ZM107.914 46.4145C105.996 46.4145 104.732 44.7161 104.732 42.125C104.732 39.4903 106.018 37.7048 108.002 37.7048C110.029 37.7048 111.25 39.4685 111.25 42.0161C111.25 44.6073 109.898 46.4145 107.914 46.4145ZM111.206 38.4669C110.465 36.8774 109.157 35.9629 107.435 35.9629C104.47 35.9629 102.137 38.6194 102.137 42.1686C102.137 45.6524 104.317 48.1565 107.195 48.1565C109.179 48.1565 110.596 46.9806 111.206 45.4347V47.8081H113.604V32.1742H111.206V38.4669ZM49.0762 35.9629C47.1796 35.9629 45.9152 37.0081 45.283 38.5976V36.3113H42.885V47.8298H45.283V41.4935C45.283 39.3379 46.3512 37.9661 48.2478 37.9661C49.97 37.9661 50.6894 38.9895 50.6894 41.1452V47.8298H53.0874V40.6444C53.0874 37.6831 51.496 35.9629 49.0762 35.9629ZM35.6038 46.5669C33.6418 46.5669 32.4428 44.8032 32.4428 42.0814C32.4428 39.3379 33.6418 37.5742 35.6038 37.5742C37.6094 37.5742 38.8084 39.3379 38.8084 42.0814C38.8084 44.8032 37.6312 46.5669 35.6038 46.5669ZM35.6038 35.9629C32.2902 35.9629 29.8486 38.6194 29.8486 42.0814C29.8486 45.5435 32.2684 48.1782 35.6038 48.1782C38.9828 48.1782 41.4026 45.5435 41.4026 42.0814C41.4026 38.6194 38.9828 35.9629 35.6038 35.9629ZM57.164 40.6226C57.4692 38.7936 58.4938 37.5306 60.2596 37.5306C61.851 37.5306 62.941 38.5758 62.9846 40.6226H57.164ZM60.3032 35.9629C56.7934 35.9629 54.548 38.4669 54.548 41.9726C54.548 45.696 57.0986 48.1565 60.761 48.1565C62.5922 48.1565 64.0964 47.525 65.0556 46.6105V45.1298C64.1618 45.979 62.8102 46.4581 61.4368 46.4581C58.9298 46.4581 57.2076 44.9556 57.0986 42.0161H65.4044V41.254C65.3826 37.9226 63.3988 35.9629 60.3032 35.9629ZM85.2206 35.9629C83.6292 35.9629 82.4084 36.8774 81.7326 38.4016C81.2312 36.8556 79.9886 35.9629 78.4626 35.9629C76.9148 35.9629 75.8248 36.8774 75.258 38.3581V36.2895H72.8382V47.8081H75.258V40.9274C75.258 39.1637 76.1518 37.9226 77.5906 37.9226C78.9422 37.9226 79.6398 38.8371 79.6398 40.6008V47.8081H82.0378V40.7315C82.0378 39.0766 82.9316 37.9226 84.3922 37.9226C85.7438 37.9226 86.376 38.8371 86.376 40.6661V47.8081H88.774V40.2306C88.7958 37.5742 87.4006 35.9629 85.2206 35.9629Z" fill="#000C2C"/>
</svg>
