<svg width="160" height="80" viewBox="0 0 160 80" fill="none" xmlns="http://www.w3.org/2000/svg">
<g clip-path="url(#clip0_150_1547)">
<path d="M129.791 24.3254C121.132 24.3254 114.109 31.345 114.109 40.0023C114.109 48.6562 121.132 55.6743 129.791 55.6743C138.454 55.6743 145.474 48.6562 145.474 40.0023C145.473 31.345 138.454 24.3254 129.791 24.3254ZM129.791 55.3127C121.332 55.3127 114.473 48.4562 114.473 40.0002C114.473 31.5421 121.332 24.6877 129.791 24.6877C138.251 24.6877 145.112 31.5421 145.112 40.0002C145.112 48.4562 138.251 55.3127 129.791 55.3127ZM128.945 26.6112C128.945 26.4475 129.031 26.3506 129.167 26.3506C129.382 26.3416 129.575 26.3367 129.79 26.3367C137.34 26.3367 143.461 32.4492 143.461 39.9995C143.461 47.5457 137.34 53.663 129.79 53.663C122.244 53.663 116.122 47.5457 116.122 39.9995C116.122 34.1121 119.841 29.1024 125.058 27.1769C125.184 27.1274 125.3 27.1943 125.352 27.3413C125.407 27.4869 125.365 27.613 125.235 27.6624C120.218 29.5155 116.641 34.3385 116.641 39.9988C116.641 47.2594 122.529 53.144 129.79 53.144C137.054 53.144 142.942 47.2594 142.942 39.9988C142.942 32.7327 137.054 26.8494 129.79 26.8494C129.582 26.8494 129.371 26.8543 129.163 26.8627C129.026 26.8634 128.945 26.7658 128.945 26.6112ZM129.406 48.3357C129.514 48.3399 129.682 48.3413 129.791 48.3413C134.4 48.3413 138.135 44.6079 138.135 40.0016C138.135 35.3946 134.4 31.6605 129.791 31.6605C129.684 31.6605 129.514 31.6619 129.406 31.6661C129.115 31.6661 128.945 31.4515 128.945 31.1199C128.945 30.7862 129.115 30.5731 129.406 30.5731C129.527 30.5689 129.67 30.5668 129.791 30.5668C135.004 30.5668 139.231 34.7892 139.231 40.0016C139.231 45.2119 135.005 49.435 129.791 49.435C129.668 49.435 129.527 49.4308 129.406 49.4267C129.115 49.4267 128.945 49.21 128.945 48.8812C128.945 48.5475 129.115 48.3357 129.406 48.3357ZM129.791 50.8012C135.76 50.8012 140.596 45.9657 140.596 40.0016C140.596 34.0333 135.76 29.1972 129.791 29.1972C129.64 29.1972 129.454 29.2013 129.301 29.2062C129.079 29.2062 128.945 29.0439 128.945 28.7854C128.945 28.5256 129.078 28.364 129.301 28.364C129.466 28.3584 129.627 28.3556 129.791 28.3556C136.227 28.3556 141.443 33.5666 141.443 40.0023C141.443 46.4324 136.227 51.6469 129.791 51.6469C129.628 51.6469 129.463 51.6427 129.301 51.6358C129.078 51.6358 128.945 51.4755 128.945 51.2143C128.945 50.9558 129.077 50.7935 129.301 50.7935C129.452 50.797 129.64 50.8012 129.791 50.8012ZM125.19 49.7764C125.391 49.8718 125.423 50.0801 125.315 50.31C125.205 50.5413 125.032 50.6354 124.831 50.5399C120.876 48.6799 118.141 44.6539 118.141 40.0016C118.141 35.3452 120.872 31.3324 124.817 29.4668C125.018 29.3755 125.21 29.4661 125.317 29.6939C125.427 29.9314 125.377 30.1376 125.176 30.2303C121.515 31.9573 118.989 35.683 118.985 40.0016C118.983 44.3146 121.521 48.0445 125.19 49.7764ZM125.173 46.9473C125.414 47.1089 125.439 47.3813 125.254 47.6586C125.072 47.9344 124.808 48.018 124.567 47.8557C121.928 46.1015 120.353 43.163 120.353 40.0009C120.353 36.8374 121.928 33.8961 124.567 32.1433C124.806 31.9796 125.072 32.0674 125.255 32.3433C125.439 32.6191 125.414 32.8936 125.173 33.0518C122.841 34.6039 121.446 37.201 121.446 40.0009C121.446 42.7959 122.841 45.3965 125.173 46.9473ZM124.21 44.1544C123.334 42.9784 122.832 41.5433 122.832 40.003C122.832 38.5024 123.31 37.0582 124.209 35.8474C124.42 35.5723 124.753 35.5618 125.07 35.8063C125.388 36.0432 125.468 36.3671 125.26 36.6444C124.534 37.6197 124.15 38.7804 124.15 40.0023C124.15 41.2228 124.537 42.3821 125.262 43.3574C125.469 43.6333 125.389 43.9558 125.072 44.1955C124.755 44.4386 124.42 44.4316 124.21 44.1544Z" fill="#000C2C"/>
<path d="M127.308 35.0106C126.722 35.175 126.342 34.7466 126.342 34.2847V27.1683C126.342 26.7301 126.665 26.4766 127.161 26.4766C127.658 26.4766 127.977 26.7294 127.977 27.1683V33.1164C128.557 32.9652 129.165 32.8816 129.791 32.8816C133.731 32.8816 136.923 36.0758 136.923 40.014C136.923 43.9501 133.731 47.1401 129.791 47.1401L129.639 47.1345C129.204 47.1345 128.945 46.812 128.945 46.3125C128.945 45.8171 129.204 45.4946 129.639 45.4946C129.688 45.4946 129.74 45.4974 129.791 45.4974C132.777 45.4974 135.271 43.0849 135.271 40.0015C135.271 36.879 132.721 34.4972 129.833 34.4972C128.437 34.4972 127.897 34.8427 127.308 35.0106ZM132.866 36.9264C132.047 36.1057 130.955 35.6585 129.794 35.6585C128.222 35.6585 126.443 36.4624 126.349 37.2058C126.334 37.3214 126.343 37.9839 126.343 37.9839V50.6582C126.343 51.1507 126.663 51.3834 127.161 51.3834C127.627 51.3834 127.978 51.1647 127.978 50.6582V37.8976C128.46 37.4635 129.096 37.2852 129.792 37.2852C131.29 37.2852 132.506 38.5043 132.506 40.0008C132.506 41.4951 131.289 42.7128 129.792 42.7128C129.772 42.7128 129.652 42.7156 129.633 42.7156C129.202 42.7156 128.945 43.0326 128.945 43.5293C128.945 44.0191 129.202 44.3402 129.633 44.3402C129.663 44.3402 129.761 44.3472 129.792 44.3472C130.955 44.3472 132.047 43.8944 132.866 43.0709C133.687 42.2489 134.14 41.1593 134.14 40.0015C134.14 38.8422 133.686 37.7478 132.866 36.9264Z" fill="#000C2C"/>
<path d="M103.344 43.9148C103.89 44.3056 104.825 44.5459 105.796 44.5459C107.821 44.5459 109.032 43.5079 109.032 41.8206C109.032 40.4956 108.332 39.8149 106.443 39.1852C105.183 38.7769 104.655 38.3854 104.655 37.773C104.655 36.9907 105.321 36.5985 106.289 36.5985C107.159 36.5985 107.992 36.82 108.742 37.2791V36.1045C108.247 35.7304 107.209 35.458 106.324 35.458C104.451 35.458 103.31 36.3261 103.31 37.8065C103.31 38.9469 103.975 39.7467 105.574 40.2733C107.106 40.7673 107.685 41.0912 107.685 41.9237C107.685 42.8245 106.971 43.3881 105.796 43.3881C104.857 43.3881 103.873 43.1157 103.344 42.7242V43.9148ZM95.6908 39.1852C95.8447 37.6017 96.6938 36.6152 98.2094 36.6152C99.7598 36.6152 100.541 37.4658 100.593 39.1852H95.6908ZM101.733 42.7743C101.052 43.1157 99.9624 43.354 98.9072 43.354C96.7962 43.354 95.725 42.3515 95.6393 40.3249H101.904C101.921 40.0866 101.955 39.6108 101.955 39.4227C101.955 36.9719 100.712 35.458 98.3124 35.458C95.6226 35.458 94.2602 37.4324 94.2602 40.0191C94.2602 42.9283 95.7932 44.5459 98.7373 44.5459C99.9123 44.5459 101.036 44.3404 101.733 43.9336V42.7743ZM91.1093 44.3404L93.6111 35.6622H92.2662L90.4629 42.4859L88.4535 35.6622H86.9547L84.9634 42.5702L83.1762 35.6622H81.7128L84.2133 44.3404H85.6272L87.7041 37.447L89.6954 44.3404H91.1093ZM76.9969 43.354C75.2605 43.354 74.2896 42.0275 74.2896 40.0191C74.2896 37.9765 75.2612 36.6486 76.9969 36.6486C78.7325 36.6486 79.7028 37.9765 79.7028 39.9835C79.7028 42.0275 78.7158 43.354 76.9969 43.354ZM76.9969 44.5459C79.7536 44.5459 81.1334 42.5361 81.1334 40.0016C81.1334 37.4477 79.9417 35.4587 76.9969 35.4587C74.2394 35.4587 72.8597 37.4658 72.8597 40.0016C72.859 42.5542 74.0521 44.5459 76.9969 44.5459ZM65.1341 37.1098C65.7471 36.7859 66.3767 36.6486 67.193 36.6486C69.0659 36.6486 70.1385 37.8908 70.1385 39.7292C70.1385 42.0617 68.8618 43.354 66.6323 43.354C66.0194 43.354 65.5938 43.2857 65.1341 43.1157V37.1098ZM63.7718 44.0847C64.6055 44.3571 65.5089 44.5459 66.5125 44.5459C69.6614 44.5459 71.5677 42.7931 71.5677 39.7125C71.5677 37.0569 69.9337 35.458 67.3288 35.458C66.5634 35.458 65.848 35.5939 65.1334 35.9018V31.5616H63.7711V44.0847H63.7718ZM55.2829 48.7475L56.935 44.3404L60.3896 35.6622H58.8921L56.2545 42.7583L53.6656 35.6622H52.1173L55.5726 44.3404L53.9038 48.7475H55.2829ZM45.1008 39.1852C45.2534 37.6017 46.1052 36.6152 47.6207 36.6152C49.1698 36.6152 49.9533 37.4658 50.0042 39.1852H45.1008ZM51.1443 42.7743C50.4631 43.1157 49.3738 43.354 48.3186 43.354C46.2076 43.354 45.1349 42.3515 45.0507 40.3249H51.315C51.331 40.0866 51.3658 39.6108 51.3658 39.4227C51.3658 36.9719 50.1233 35.458 47.7231 35.458C45.0333 35.458 43.6716 37.4324 43.6716 40.0191C43.6716 42.9283 45.2039 44.5459 48.1487 44.5459C49.3244 44.5459 50.4471 44.3404 51.145 43.9336L51.1443 42.7743ZM42.2069 44.3404V38.6571C42.2069 36.2076 40.7254 35.458 38.8365 35.458C37.5599 35.458 36.0443 35.782 34.9382 36.1902V44.3404H36.3006V37.0757C36.8627 36.8541 37.7472 36.6842 38.5134 36.6842C40.0958 36.6842 40.8445 37.2283 40.8445 39.1336V44.3411L42.2069 44.3404ZM33.6281 43.1498C33.1684 43.2857 32.6913 43.37 32.0951 43.37C31.4822 43.37 31.0225 43.2 31.0225 42.0777V36.8026H33.3036V35.6622H31.0225V33.5186H29.6783V35.6622H28.231V36.8026H29.6783V42.3333C29.6783 43.898 30.4946 44.5459 31.772 44.5459C32.4859 44.5459 33.0995 44.4442 33.6281 44.2401V43.1498ZM26.076 34.0292C26.5698 34.0292 26.9613 33.6377 26.9613 33.1444C26.9613 32.6505 26.5698 32.2423 26.076 32.2423C25.5655 32.2423 25.1741 32.6505 25.1741 33.1444C25.1741 33.6377 25.5655 34.0292 26.076 34.0292ZM26.7398 35.6622H25.3788V44.3404H26.7398V35.6622ZM17.2876 37.1941C17.8657 36.82 18.5302 36.6486 19.3479 36.6486C21.2201 36.6486 22.2927 37.8908 22.2927 39.7292C22.2927 42.0617 21.016 43.354 18.7691 43.354C18.1562 43.354 17.7306 43.2857 17.2883 43.1157V37.1941H17.2876ZM17.2876 48.7475V44.3564C17.7299 44.4763 18.207 44.5452 18.7001 44.5452C21.7988 44.5452 23.7212 42.7924 23.7212 39.7118C23.7212 37.075 22.0705 35.4573 19.4837 35.4573C18.2579 35.4573 16.9819 35.8315 15.9253 36.7162V48.7475H17.2876Z" fill="#000C2C"/>
</g>
<defs>
<clipPath id="clip0_150_1547">
<rect width="130.2" height="32" fill="white" transform="translate(15.6001 24)"/>
</clipPath>
</defs>
</svg>
