<svg width="156" height="80" viewBox="0 0 156 80" fill="none" xmlns="http://www.w3.org/2000/svg">
<g clip-path="url(#clip0_150_1541)">
<mask id="mask0_150_1541" style="mask-type:luminance" maskUnits="userSpaceOnUse" x="35" y="11" width="81" height="58">
<path d="M35.6179 11.9476H115.923V68.0523H35.6179V11.9476Z" fill="white"/>
</mask>
<g mask="url(#mask0_150_1541)">
<path fill-rule="evenodd" clip-rule="evenodd" d="M68.9621 18.0895C71.5542 15.3906 75.1621 13.7193 79.1478 13.7193C84.4621 13.7193 89.0678 16.6721 91.5478 21.0719C93.7492 20.0877 96.1336 19.5795 98.5449 19.5807C108.111 19.5807 115.875 27.4059 115.875 37.0618C115.875 46.7177 108.111 54.5428 98.5449 54.5428C97.3758 54.5428 96.2362 54.4253 95.1202 54.2032C92.9502 58.0715 88.8021 60.6996 84.0782 60.6996C82.155 60.7034 80.2564 60.267 78.5278 59.4239C76.3282 64.5915 71.2059 68.2235 65.2421 68.2235C59.0125 68.2235 53.7278 64.2962 51.6906 58.7743C50.7839 58.9657 49.8598 59.0619 48.9331 59.0613C41.5226 59.0613 35.5293 52.9784 35.5293 45.5076C35.5293 40.4877 38.2278 36.1174 42.2312 33.7551C41.3819 31.7983 40.9447 29.6874 40.9469 27.5541C40.9469 18.9317 47.9441 11.9629 56.565 11.9629C61.6136 11.9629 66.1307 14.3695 68.965 18.1049" fill="#000C2C"/>
</g>
<path fill-rule="evenodd" clip-rule="evenodd" d="M47.2326 41.122C47.1821 41.2536 47.2506 41.2811 47.2669 41.3044C47.4177 41.4137 47.571 41.4928 47.7245 41.5817C48.5452 42.0158 49.3188 42.1428 50.1277 42.1428C51.7751 42.1428 52.7996 41.2658 52.7996 39.8543V39.8265C52.7996 38.5213 51.6423 38.0459 50.5617 37.7064L50.4203 37.6606C49.6025 37.3954 48.8969 37.1645 48.8969 36.6271V36.5996C48.8969 36.139 49.3102 35.7994 49.9479 35.7994C50.6565 35.7994 51.5009 36.0353 52.0412 36.3339C52.0412 36.3339 52.2012 36.4372 52.2593 36.2828C52.2909 36.1992 52.5664 35.4619 52.5959 35.3792C52.6272 35.2927 52.5723 35.2274 52.5159 35.1937C51.8959 34.8158 51.0397 34.5589 50.154 34.5589L49.9895 34.5595C48.4809 34.5595 47.4269 35.4719 47.4269 36.7771V36.8051C47.4269 38.1812 48.5901 38.63 49.6766 38.9401L49.8514 38.9944C50.6426 39.2377 51.3276 39.4491 51.3276 40.0043V40.032C51.3276 40.5429 50.8818 40.9238 50.1673 40.9238C49.8895 40.9238 49.004 40.9191 48.0445 40.3126C47.9285 40.2449 47.8624 40.1962 47.7729 40.1416C47.7257 40.113 47.6076 40.0613 47.5562 40.216L47.2314 41.1196M71.3524 41.1196C71.3019 41.2513 71.3704 41.2787 71.3872 41.3021C71.5375 41.4113 71.6913 41.4905 71.8448 41.5794C72.6656 42.0134 73.4391 42.1404 74.2481 42.1404C75.8955 42.1404 76.92 41.2634 76.92 39.8519V39.8242C76.92 38.519 75.7656 38.0436 74.6821 37.704L74.5407 37.6582C73.7228 37.3931 73.0172 37.1621 73.0172 36.6247V36.5973C73.0172 36.1366 73.4306 35.797 74.0683 35.797C74.7768 35.797 75.6183 36.033 76.1615 36.3315C76.1615 36.3315 76.3215 36.4348 76.38 36.2804C76.4113 36.1968 76.687 35.4595 76.7136 35.3768C76.7452 35.2903 76.69 35.2251 76.6339 35.1914C76.0139 34.8134 75.1577 34.5565 74.272 34.5565L74.1072 34.5571C72.5986 34.5571 71.5446 35.4695 71.5446 36.7747V36.8028C71.5446 38.1788 72.7078 38.6277 73.7943 38.9377L73.9688 38.992C74.763 39.2354 75.445 39.4468 75.445 40.0019V40.0297C75.445 40.5405 74.9992 40.9215 74.2847 40.9215C74.0063 40.9215 73.1185 40.9167 72.1619 40.3102C72.0459 40.2426 71.978 40.1959 71.89 40.1392C71.8602 40.1203 71.7211 40.066 71.6736 40.2136L71.3488 41.1172M87.8231 38.3533C87.8231 39.1506 87.6743 39.7796 87.3832 40.2255C87.0927 40.6654 86.654 40.881 86.0428 40.881C85.4317 40.881 84.9947 40.6672 84.7084 40.2284C84.4199 39.7855 84.2744 39.1536 84.2744 38.3563C84.2744 37.559 84.4208 36.933 84.7084 36.493C84.9942 36.056 85.4287 35.8463 86.0428 35.8463C86.6569 35.8463 87.0939 36.0581 87.3832 36.493C87.6761 36.933 87.8231 37.559 87.8231 38.3563M89.1989 36.8769C89.0634 36.4192 88.8535 36.0176 88.573 35.681C88.2923 35.3443 87.9383 35.0727 87.5161 34.8778C87.0968 34.6814 86.6008 34.5825 86.0399 34.5825C85.4789 34.5825 84.9859 34.682 84.5637 34.8778C84.1445 35.0739 83.7872 35.3443 83.5067 35.681C83.2269 36.0176 83.0166 36.4192 82.8808 36.8769C82.7465 37.3316 82.6783 37.8277 82.6783 38.3563C82.6783 38.8848 82.7465 39.3809 82.8808 39.8357C83.0158 40.2934 83.2263 40.695 83.5067 41.0316C83.7875 41.3682 84.1445 41.6369 84.5637 41.8289C84.9859 42.0202 85.4819 42.1177 86.0399 42.1177C86.5979 42.1177 87.0939 42.0202 87.5131 41.8289C87.9324 41.6375 88.2896 41.3682 88.5701 41.0316C88.8503 40.695 89.0602 40.2934 89.196 39.8357C89.33 39.3809 89.3982 38.8848 89.3982 38.3563C89.3982 37.8307 89.33 37.3316 89.196 36.8769M100.504 40.6566C100.458 40.5228 100.328 40.5733 100.328 40.5733C100.128 40.6498 99.9146 40.7207 99.6873 40.7561C99.4582 40.7921 99.2031 40.8101 98.9344 40.8101C98.2701 40.8101 97.7387 40.612 97.3608 40.2196C96.9799 39.8268 96.7674 39.1949 96.7703 38.3386C96.7724 37.559 96.9607 36.9743 97.2988 36.5255C97.6324 36.0826 98.1461 35.8522 98.8252 35.8522C99.392 35.8522 99.826 35.9181 100.281 36.0604C100.281 36.0604 100.388 36.1074 100.44 35.9653C100.561 35.6317 100.65 35.3925 100.78 35.0263C100.816 34.9215 100.727 34.8772 100.694 34.8645C100.515 34.7948 100.094 34.6805 99.7755 34.6324C99.4773 34.5869 99.1319 34.5633 98.7422 34.5633C98.1635 34.5633 97.6498 34.6622 97.2099 34.8583C96.77 35.0541 96.398 35.3249 96.1028 35.6615C95.8075 35.9981 95.5832 36.3997 95.4326 36.8574C95.2835 37.3121 95.2082 37.8112 95.2082 38.3397C95.2082 39.4796 95.5153 40.4038 96.1234 41.08C96.7316 41.7592 97.6469 42.1017 98.8396 42.1017C99.5453 42.1017 100.269 41.9591 100.788 41.7533C100.788 41.7533 100.887 41.7054 100.844 41.5897L100.505 40.6566M102.911 37.5856C102.977 37.1426 103.098 36.7735 103.289 36.4871C103.574 36.0501 104.009 35.8109 104.62 35.8109C105.232 35.8109 105.636 36.0513 105.925 36.4871C106.117 36.775 106.201 37.1574 106.232 37.5856L102.896 37.585L102.911 37.5856ZM107.546 36.6111C107.429 36.1712 107.139 35.7253 106.95 35.5215C106.649 35.1997 106.356 34.9723 106.064 34.8483C105.642 34.6688 105.188 34.5767 104.73 34.5775C104.148 34.5775 103.62 34.6758 103.191 34.8757C102.763 35.0771 102.403 35.3511 102.12 35.6937C101.837 36.0362 101.624 36.4407 101.488 36.9044C101.352 37.362 101.284 37.864 101.284 38.3896C101.284 38.9271 101.355 39.4261 101.495 39.8779C101.636 40.3326 101.864 40.7313 102.171 41.062C102.478 41.3957 102.871 41.6555 103.343 41.8386C103.812 42.0202 104.382 42.1144 105.035 42.1123C106.381 42.1079 107.089 41.8082 107.379 41.6458C107.43 41.6169 107.479 41.5669 107.418 41.4231L107.114 40.5698C107.068 40.4425 106.939 40.4886 106.939 40.4886C106.605 40.6132 106.133 40.837 105.026 40.834C104.302 40.8329 103.768 40.6194 103.431 40.2848C103.089 39.9423 102.918 39.4432 102.891 38.7345L107.556 38.7381C107.556 38.7381 107.679 38.7369 107.691 38.617C107.696 38.5674 107.851 37.6603 107.552 36.612L107.546 36.6111ZM65.6224 37.5856C65.6882 37.1426 65.8099 36.7735 66.0003 36.4871C66.2861 36.0501 66.7207 35.8109 67.3318 35.8109C67.943 35.8109 68.3474 36.0513 68.6368 36.4871C68.8284 36.775 68.9122 37.1574 68.9438 37.5856L65.6076 37.585L65.6224 37.5856ZM70.2576 36.6111C70.1407 36.1712 69.8502 35.7253 69.6613 35.5215C69.3601 35.1997 69.0678 34.9723 68.7755 34.8483C68.3536 34.6688 67.8996 34.5767 67.4411 34.5775C66.8594 34.5775 66.331 34.6758 65.9029 34.8757C65.4748 35.0771 65.1146 35.3511 64.8312 35.6937C64.5486 36.0362 64.3352 36.4407 64.1994 36.9044C64.0638 37.362 63.9956 37.864 63.9956 38.3896C63.9956 38.9271 64.0662 39.4261 64.207 39.8779C64.3482 40.3326 64.5761 40.7313 64.8802 41.062C65.1872 41.3957 65.5799 41.6555 66.0523 41.8386C66.5217 42.0202 67.0886 42.1144 67.744 42.1123C69.0903 42.1079 69.7988 41.8082 70.0882 41.6458C70.1395 41.6169 70.1886 41.5669 70.1274 41.4231L69.8233 40.5698C69.7764 40.4425 69.6477 40.4886 69.6477 40.4886C69.3141 40.6132 68.8417 40.837 67.7345 40.834C67.0142 40.8329 66.4768 40.6194 66.1402 40.2848C65.7978 39.9423 65.6265 39.4432 65.6 38.7345L70.2647 38.7381C70.2647 38.7381 70.3875 38.7369 70.4002 38.617C70.4053 38.5674 70.56 37.6603 70.2609 36.612L70.2576 36.6111ZM55.5548 40.627C55.372 40.4812 55.3466 40.4454 55.2861 40.3507C55.1937 40.208 55.1465 40.0052 55.1465 39.7453C55.1465 39.3378 55.2823 39.0425 55.5628 38.8447C55.5598 38.8453 55.9643 38.4962 56.9149 38.5081C57.3381 38.5156 57.7602 38.5516 58.1786 38.6158V40.7331H58.1792C58.1792 40.7331 57.5887 40.8603 56.9214 40.9005C55.9737 40.9575 55.5545 40.6276 55.5574 40.6285L55.5548 40.627ZM57.4089 37.3494C57.2199 37.3355 56.9749 37.3287 56.6826 37.3287C56.284 37.3287 55.8973 37.3783 55.5371 37.4757C55.1739 37.5738 54.8462 37.7255 54.5657 37.9275C54.2845 38.1282 54.0532 38.3909 53.8896 38.6953C53.7246 39.0024 53.6405 39.3626 53.6405 39.7701C53.6405 40.1835 53.7122 40.5408 53.8539 40.8332C53.9928 41.1231 54.2018 41.3738 54.4621 41.5625C54.721 41.7509 55.0408 41.8903 55.4098 41.973C55.7759 42.0565 56.1893 42.0988 56.6439 42.0988C57.1222 42.0988 57.5975 42.0586 58.0581 41.9809C58.4504 41.9133 58.8412 41.8373 59.2302 41.753C59.3855 41.7172 59.5579 41.6703 59.5579 41.6703C59.6731 41.6411 59.6642 41.5179 59.6642 41.5179L59.6615 37.2658C59.6615 36.3327 59.4124 35.6387 58.9205 35.2106C58.4304 34.7824 57.713 34.5669 56.783 34.5669C56.4346 34.5669 55.8707 34.6141 55.5341 34.6817C55.5341 34.6817 54.5185 34.879 54.0993 35.2073C54.0993 35.2073 54.0071 35.264 54.0573 35.3925L54.388 36.2783C54.429 36.3932 54.5409 36.3539 54.5409 36.3539C54.5409 36.3539 54.5761 36.3401 54.6174 36.3155C55.512 35.8283 56.6457 35.8431 56.6457 35.8431C57.1476 35.8431 57.5373 35.945 57.7971 36.1443C58.0513 36.3395 58.1809 36.6345 58.1809 37.2546V37.4515C57.7824 37.3936 57.4133 37.3603 57.4133 37.3603L57.4089 37.3494ZM94.9041 34.9487C94.9108 34.9331 94.9143 34.9163 94.9144 34.8994C94.9145 34.8824 94.9112 34.8656 94.9047 34.85C94.8982 34.8343 94.8886 34.8201 94.8764 34.8083C94.8643 34.7964 94.8499 34.7871 94.8341 34.7809C94.7547 34.7508 94.3588 34.6673 94.0547 34.6484C93.4701 34.6117 93.1454 34.7104 92.8531 34.8415C92.5644 34.9717 92.2449 35.1811 92.0678 35.4232L92.0672 34.8562C92.0672 34.7783 92.012 34.7154 91.9334 34.7154H90.7407C90.6633 34.7154 90.6072 34.7783 90.6072 34.8562V41.7955C90.6073 41.833 90.6222 41.8689 90.6487 41.8954C90.6752 41.9219 90.7112 41.9369 90.7486 41.9369H91.9709C92.0084 41.9369 92.0443 41.9219 92.0707 41.8954C92.0972 41.8689 92.112 41.833 92.112 41.7955V38.3111C92.112 37.8445 92.1634 37.3809 92.2659 37.0886C92.3668 36.7995 92.5041 36.5689 92.6733 36.4035C92.8347 36.2438 93.0322 36.1253 93.249 36.0581C93.4525 35.9996 93.6632 35.97 93.8749 35.9701C94.1185 35.9701 94.3857 36.0327 94.3857 36.0327C94.4754 36.0427 94.5253 35.9878 94.5557 35.9069C94.6357 35.694 94.8628 35.0564 94.9071 34.9295" fill="white"/>
<path fill-rule="evenodd" clip-rule="evenodd" d="M83.4882 31.746C83.3371 31.7003 83.1834 31.6639 83.0279 31.6368C82.8188 31.6018 82.607 31.5854 82.395 31.5877C81.5526 31.5877 80.8887 31.8257 80.4225 32.2958C79.9595 32.7624 79.6445 33.4732 79.4866 34.4083L79.4296 34.724H78.3723C78.3723 34.724 78.2433 34.7187 78.2162 34.8595L78.0426 35.8281C78.0305 35.9208 78.0703 35.9787 78.1943 35.9781H79.2235L78.1793 41.8079C78.0975 42.2775 78.0039 42.6637 77.9003 42.9563C77.7981 43.2451 77.6983 43.4616 77.5755 43.6187C77.4565 43.7707 77.3437 43.8826 77.1492 43.9479C76.9886 44.0019 76.8037 44.0267 76.6012 44.0267C76.4884 44.0267 76.3384 44.0078 76.2277 43.9857C76.117 43.9638 76.0594 43.939 75.9765 43.9042C75.9765 43.9042 75.8557 43.8581 75.8082 43.9792C75.7695 44.0781 75.4952 44.8326 75.4628 44.9259C75.4297 45.018 75.4761 45.0907 75.5345 45.1116C75.6715 45.1606 75.7734 45.1919 75.9599 45.2359C76.2192 45.2971 76.4376 45.3009 76.6422 45.3009C77.0709 45.3009 77.4615 45.2407 77.7854 45.1237C78.1113 45.0059 78.3951 44.8007 78.646 44.5228C78.9173 44.2231 79.088 43.9092 79.2513 43.481C79.4128 43.0567 79.5503 42.5299 79.6605 41.916L80.7097 35.9781H82.2438C82.2438 35.9781 82.3731 35.9828 82.4 35.8425L82.5736 34.874C82.5857 34.7813 82.5461 34.7234 82.4215 34.724H80.9326C80.94 34.6903 81.0076 34.1665 81.1786 33.6734C81.2515 33.4628 81.3888 33.293 81.5051 33.1764C81.6137 33.0653 81.7475 32.982 81.8951 32.9337C82.0569 32.8836 82.2256 32.8593 82.395 32.8616C82.5352 32.8616 82.6728 32.8784 82.7776 32.9003C82.922 32.931 82.9781 32.9472 83.0158 32.9585C83.1676 33.0048 83.188 32.9599 83.2178 32.8864L83.5738 31.9084C83.6105 31.8033 83.5213 31.759 83.4882 31.746ZM62.6816 41.8203C62.6816 41.8983 62.6261 41.9618 62.5482 41.9618H61.3132C61.2349 41.9618 61.1794 41.8983 61.1794 41.8203V31.8786C61.1794 31.8009 61.2349 31.738 61.3132 31.738H62.5482C62.6261 31.738 62.6816 31.8009 62.6816 31.8786V41.8203Z" fill="white"/>
</g>
<defs>
<clipPath id="clip0_150_1541">
<rect width="80.6" height="56.4" fill="white" transform="translate(35.6001 11.8)"/>
</clipPath>
</defs>
</svg>
