<svg width="160" height="80" viewBox="0 0 160 80" fill="none" xmlns="http://www.w3.org/2000/svg">
<path d="M24.6001 19H64.635V59.0349H24.6001V19ZM60.4647 54.8646V23.1703H28.7704V54.8646H60.4647ZM32.3569 29.3423V41.4362C32.3569 46.9688 35.3873 50.2494 40.5306 50.2494C45.813 50.2494 48.8434 46.9688 48.8434 41.4362V29.3423H44.6731V41.4362C44.6731 44.55 43.3108 46.3294 40.5862 46.3294C37.6948 46.3294 36.4159 44.4944 36.4159 41.4362V29.3423H32.3569ZM54.2092 31.8167C55.6549 31.8167 56.767 30.788 56.767 29.3423C56.767 27.8132 55.7383 26.7846 54.2092 26.7846C52.7635 26.7846 51.6514 27.8132 51.6514 29.3423C51.6514 30.7602 52.7913 31.8167 54.2092 31.8167ZM52.1519 33.7351V49.9992H56.3222V33.7351H52.1519ZM76.9513 43.3546C81.4274 43.3546 84.4022 40.7134 84.4022 36.3206C84.4022 32.0669 81.5108 29.3423 76.9513 29.3423H69.1111V50.0826H73.2814V43.438H76.9513V43.3546ZM76.4786 40.0461H73.198V32.6786H76.4786C78.8696 32.6786 80.1485 34.0409 80.1485 36.2928C80.1485 38.6838 78.8696 40.0461 76.4786 40.0461ZM85.7645 41.9088C85.7645 46.802 88.8783 50.2494 93.2988 50.2494C95.94 50.2494 97.6081 49.2764 98.5812 47.7751V50.1104H102.752V33.7351H98.5812V36.2928C97.5525 34.6247 95.8566 33.5682 93.2988 33.5682C88.7949 33.5682 85.7645 37.0991 85.7645 41.9088ZM98.5812 41.9088C98.5812 44.7168 96.8297 46.5518 94.2719 46.5518C91.4639 46.5518 90.0182 44.55 90.0182 41.9088C90.0182 39.0174 91.6307 37.1825 94.2719 37.1825C96.8853 37.1825 98.5812 39.1008 98.5812 41.9088ZM113.149 46.4684C111.537 46.4684 111.148 45.7455 111.148 44.2998V37.2659H114.762V33.7351H111.148V29.2589H106.977V33.7351H105.059V37.2659H106.977V44.2998C106.977 48.1365 108.646 49.9714 112.649 49.9714H114.818V46.4406H113.149V46.4684ZM121.24 36.0426V28.3693H117.07V50.0548H121.24V41.4084C121.24 38.6004 122.686 36.9323 125.16 36.9323C127.551 36.9323 128.83 38.5448 128.83 41.0192V49.9992H133V40.63C133 36.3763 129.97 33.596 126.105 33.596C123.714 33.5682 122.185 34.4579 121.24 36.0426Z" fill="#000C2C"/>
</svg>
