<svg width="160" height="80" viewBox="0 0 160 80" fill="none" xmlns="http://www.w3.org/2000/svg">
<g clip-path="url(#clip0_150_1543)">
<path d="M72.9196 48.2717L67.1079 32.1219C67.0314 31.8926 66.9294 31.6124 66.9294 31.3322C66.9294 30.6444 67.5157 29.9567 68.3824 29.9567C69.1216 29.9567 69.6059 30.4407 69.8353 31.1284L74.653 45.0621L79.4961 31.1029C79.7255 30.4406 80.1589 29.9567 80.8981 29.9567H81.051C81.8412 29.9567 82.3 30.4406 82.5294 31.1029L87.3471 45.0621L92.2412 31.0775C92.4196 30.4916 92.8275 29.9567 93.6177 29.9567C94.4334 29.9567 95.0196 30.5935 95.0196 31.2813C95.0196 31.536 94.9177 31.8417 94.8412 32.0709L89.004 48.2717C88.6981 49.1123 88.1118 49.5708 87.449 49.5708H87.3471C86.6079 49.5708 86.0471 49.1377 85.7922 48.2717L81.0255 34.5418L76.2079 48.2717C75.953 49.1123 75.3922 49.5708 74.653 49.5708H74.5765C73.8118 49.5453 73.2 49.1123 72.9196 48.2717Z" fill="#000C2C"/>
<path d="M115.233 31.3831C115.233 30.5935 115.871 29.9312 116.635 29.9312C117.451 29.9312 118.088 30.568 118.088 31.3831V34.6691C119.49 31.485 122.625 29.9821 124.69 29.9821C125.557 29.9821 126.092 30.6189 126.092 31.4341C126.092 32.2237 125.582 32.7586 124.818 32.886C121.121 33.319 118.063 36.1211 118.063 41.6232V48.1188C118.063 48.9085 117.476 49.5707 116.661 49.5707C115.845 49.5707 115.208 48.9339 115.208 48.1188L115.233 31.3831Z" fill="#000C2C"/>
<path d="M135.294 49.7491C130.145 49.7491 125.939 45.7499 125.939 39.8911V39.8147C125.939 34.3635 129.763 29.9567 134.937 29.9567C140.494 29.9567 143.655 34.5418 143.655 39.5599C143.655 40.3241 143.043 40.8845 142.355 40.8845H128.794C129.202 44.9857 132.057 47.3037 135.396 47.3037C137.716 47.3037 139.424 46.3867 140.8 45.113C141.029 44.9347 141.284 44.7819 141.59 44.7819C142.278 44.7819 142.814 45.3423 142.814 46.0046C142.814 46.3357 142.661 46.6669 142.38 46.9216C140.596 48.6283 138.506 49.7491 135.294 49.7491ZM140.851 38.7958C140.571 35.3569 138.608 32.3511 134.861 32.3511C131.598 32.3511 129.125 35.1022 128.769 38.7958H140.851Z" fill="#000C2C"/>
<path d="M95.0962 43.8394V43.763C95.0962 39.7382 98.4099 37.5985 103.253 37.5985C105.7 37.5985 107.433 37.9297 109.141 38.4137V37.7514C109.141 34.3125 107.026 32.5549 103.457 32.5549C101.545 32.5549 100.424 32.8096 99.0217 33.421C98.8433 33.4974 98.6648 33.5229 98.5119 33.5229C97.8491 33.5229 97.2629 32.9625 97.2629 32.3002C97.2629 31.7143 97.5178 31.3577 98.0531 31.1284C99.9393 30.3133 101.341 30.0331 103.788 30.0331C106.49 30.0331 108.555 30.7208 109.957 32.1473C111.257 33.4464 111.92 35.2805 111.92 37.7259V48.2717C111.92 49.0868 111.333 49.6727 110.543 49.6727C109.728 49.6727 109.192 49.0868 109.192 48.3481V46.5395C107.867 48.2717 105.649 49.8255 102.284 49.8255C98.6903 49.8 95.0962 47.7622 95.0962 43.8394ZM109.167 42.362V40.5279C107.765 40.1203 105.879 39.7128 103.559 39.7128C99.9903 39.7128 97.9766 41.2666 97.9766 43.6611V43.7375C97.9766 46.1319 100.194 47.533 102.769 47.533C106.286 47.533 109.167 45.3932 109.167 42.362Z" fill="#000C2C"/>
<path d="M21.2256 31.2048C20.5883 29.8293 19.0589 29.218 17.606 29.8548C16.153 30.4916 15.6177 32.0964 16.2805 33.4719L22.3471 46.6414C23.2903 48.7047 24.3099 49.7746 26.1962 49.7746C28.2099 49.7746 29.102 48.6028 30.0452 46.6414C30.0452 46.6414 35.3217 35.1277 35.3981 35.0003C35.4491 34.8729 35.6275 34.5163 36.1628 34.5163C36.6217 34.5163 37.004 34.8729 37.004 35.3569V46.6159C37.004 48.3481 37.9726 49.7746 39.8079 49.7746C41.6687 49.7746 42.6628 48.3481 42.6628 46.6159V37.3948C42.6628 35.6117 43.9373 34.4654 45.6707 34.4654C47.404 34.4654 48.5511 35.6626 48.5511 37.3948V46.6159C48.5511 48.3481 49.5197 49.7746 51.355 49.7746C53.2158 49.7746 54.2099 48.3481 54.2099 46.6159V37.3948C54.2099 35.6117 55.4844 34.4654 57.2177 34.4654C58.9511 34.4654 60.0981 35.6626 60.0981 37.3948V46.6159C60.0981 48.3481 61.0668 49.7746 62.902 49.7746C64.7628 49.7746 65.7569 48.3481 65.7569 46.6159V36.1211C65.7569 32.2747 62.6471 29.5746 58.9256 29.5746C55.204 29.5746 52.8589 32.1473 52.8589 32.1473C51.6099 30.5425 49.902 29.5746 47.0217 29.5746C43.9628 29.5746 41.2864 32.1473 41.2864 32.1473C40.0373 30.5425 37.9217 29.5746 36.1883 29.5746C33.4864 29.5746 31.3452 30.7718 30.0197 33.7521L26.1452 42.8714L21.2256 31.2048Z" fill="#000C2C"/>
<path d="M143.884 32.3765C143.884 31.0774 144.929 29.9821 146.255 29.9821C147.58 29.9821 148.625 31.0519 148.625 32.351C148.625 33.6501 147.58 34.72 146.255 34.72C144.904 34.72 143.884 33.6501 143.884 32.3765ZM148.141 32.351C148.141 31.2812 147.325 30.4151 146.229 30.4151C145.159 30.4151 144.318 31.3066 144.318 32.351C144.318 33.3954 145.133 34.287 146.229 34.287C147.325 34.287 148.141 33.3954 148.141 32.351Z" fill="#000C2C"/>
<path d="M145.363 31.3831C145.363 31.2303 145.465 31.1284 145.618 31.1284H146.408C146.714 31.1284 146.943 31.2048 147.071 31.3577C147.198 31.485 147.275 31.6633 147.275 31.8671C147.275 32.2238 147.096 32.453 146.816 32.5549L147.173 32.9879C147.224 33.0389 147.249 33.1153 147.249 33.1917C147.249 33.3191 147.122 33.421 147.02 33.421C146.918 33.421 146.841 33.37 146.765 33.2936L146.28 32.6823H145.873V33.1917C145.873 33.3446 145.771 33.4465 145.618 33.4465C145.465 33.4465 145.363 33.3446 145.363 33.1917V31.3831ZM146.382 32.2492C146.637 32.2492 146.765 32.1219 146.765 31.9181C146.765 31.7143 146.612 31.5869 146.382 31.5869H145.873V32.2492H146.382Z" fill="#000C2C"/>
</g>
<defs>
<clipPath id="clip0_150_1543">
<rect width="132.6" height="20.2" fill="white" transform="translate(16 29.6)"/>
</clipPath>
</defs>
</svg>
